<svg id="Group_4318" data-name="Group 4318" xmlns="http://www.w3.org/2000/svg" width="78.469" height="60.857" viewBox="0 0 78.469 60.857">
  <g id="Group_14" data-name="Group 14" transform="translate(0)">
    <g id="Group_3" data-name="Group 3" transform="translate(8.909)">
      <path id="Path_1" data-name="Path 1" d="M411.357,253.788a2.345,2.345,0,0,0-2.171-1.424,3.634,3.634,0,0,0-1.109.169,2.9,2.9,0,0,0-.975.525,2.6,2.6,0,0,0-.946,2.04,2.358,2.358,0,0,0,.221.991,3.085,3.085,0,0,0,.545.813,2.845,2.845,0,0,0,.8.606,2.194,2.194,0,0,0,2.159-.076,3.423,3.423,0,0,0,.848-.718,3.616,3.616,0,0,0,.582-.943,2.725,2.725,0,0,0,.228-1.055A2.347,2.347,0,0,0,411.357,253.788Z" transform="translate(-389.208 -230.048)" fill="#8e8e8e"/>
      <g id="Group_2" data-name="Group 2" transform="translate(49.97 21.568)">
        <path id="Path_2" data-name="Path 2" d="M531.29,255.93a11.91,11.91,0,0,0-1.566,2.388q.231-.287.481-.621A11.8,11.8,0,0,0,531.29,255.93Z" transform="translate(-527.864 -254.175)" fill="none"/>
        <g id="Group_1" data-name="Group 1">
          <path id="Path_3" data-name="Path 3" d="M526.01,253.631c1.144-1.555,1.845-3.2,1.668-3.844-.018-.065-.059-.088-.156-.062a7.509,7.509,0,0,0-1.4,1.244,18.21,18.21,0,0,0-2.983,5.41A8.5,8.5,0,0,0,526.01,253.631Z" transform="translate(-523.136 -249.715)" fill="none"/>
        </g>
      </g>
      <path id="Path_4" data-name="Path 4" d="M346.116,181.653c1.927-.465,2.89-1.917,3.732-3.505.455-.859.9-1.723,1.411-2.551a4.567,4.567,0,0,1,2.7-2.045,5.93,5.93,0,0,1,3.788.148c.059.022.115.052.178.082a16.449,16.449,0,0,0-1.766.019,5.269,5.269,0,0,0-3.82,2.375c-.711,1.012-1.4,2.036-2.131,3.036a11.559,11.559,0,0,1-.893.981l.077.106a6.989,6.989,0,0,0,1.033-.8c1.084-1.213,2.073-2.515,3.209-3.675a5.274,5.274,0,0,1,4.033-1.742,3.875,3.875,0,0,1,3.03,1.658c-.26-.1-.429-.156-.594-.224a4.331,4.331,0,0,0-4.246.578,22,22,0,0,0-3.364,3.174,8.99,8.99,0,0,1-3.221,2.337A5.645,5.645,0,0,1,346.116,181.653Z" transform="translate(-346.116 -173.31)" fill="#ffc300"/>
    </g>
    <g id="Group_5" data-name="Group 5" transform="translate(7.034 49.478)">
      <g id="Group_4" data-name="Group 4">
        <path id="Path_5" data-name="Path 5" d="M341.124,373.745a1.182,1.182,0,0,1-.683-.182,1.544,1.544,0,0,1-.471-.5,2.941,2.941,0,0,1-.3-.674,4.284,4.284,0,0,1-.155-.728,5.324,5.324,0,0,1-.045-.647,4.949,4.949,0,0,1,.055-.7,4.5,4.5,0,0,1,.182-.769,2.913,2.913,0,0,1,.339-.7,1.772,1.772,0,0,1,.523-.519,1.373,1.373,0,0,1,.739-.206,1.279,1.279,0,0,1,.728.182,1.207,1.207,0,0,1,.442.5,1.333,1.333,0,0,1,.155.508q.006.2.005.214a2.209,2.209,0,0,1-.118.708,2.171,2.171,0,0,1-.385.686.2.2,0,0,1-.114.073l-.061,0a.238.238,0,0,1-.139-.043.183.183,0,0,1-.077-.107c0-.032-.005-.05-.005-.055a.224.224,0,0,1,.05-.139,1.466,1.466,0,0,0,.237-.4,2.112,2.112,0,0,0,.134-.454,2.369,2.369,0,0,0,.036-.371.88.88,0,0,0-.147-.539.391.391,0,0,0-.332-.139.759.759,0,0,0-.507.2,1.633,1.633,0,0,0-.364.487,3.3,3.3,0,0,0-.241.633,4.856,4.856,0,0,0-.13.648,4.231,4.231,0,0,0-.039.516,5.1,5.1,0,0,0,.112,1.206,1.329,1.329,0,0,0,.3.624.567.567,0,0,0,.41.18.637.637,0,0,0,.362-.135,1,1,0,0,0,.307-.394,1.675,1.675,0,0,0,.137-.651.212.212,0,0,1,.068-.15.23.23,0,0,1,.316,0,.2.2,0,0,1,.062.149,2.02,2.02,0,0,1-.346,1.138A1.227,1.227,0,0,1,341.124,373.745Z" transform="translate(-339.472 -362.603)" fill="#8e8e8e"/>
        <path id="Path_6" data-name="Path 6" d="M352.837,375.728a.44.44,0,0,1-.341-.152.748.748,0,0,1-.152-.527q0-1.566-.052-2.082a8.419,8.419,0,0,0-.155-.981.57.57,0,0,1-.011-.11.341.341,0,0,1,.078-.226.381.381,0,0,1,.293-.136.462.462,0,0,1,.325.135.863.863,0,0,1,.228.474,5.083,5.083,0,0,1,.086.773q.339-1.422.831-1.578a.843.843,0,0,1,.221-.041.6.6,0,0,1,.236.035.2.2,0,0,1,.143.2.229.229,0,0,1-.066.163.233.233,0,0,1-.166.075.559.559,0,0,1-.105-.006.686.686,0,0,0-.123-.005q-.325.014-.7,1.971a12.508,12.508,0,0,0-.157,1.647Q353.23,375.711,352.837,375.728Z" transform="translate(-348.555 -364.872)" fill="#8e8e8e"/>
        <path id="Path_7" data-name="Path 7" d="M363.25,375.885a.146.146,0,0,1-.032,0,.7.7,0,0,1-.466-.226,1.517,1.517,0,0,1-.312-.509,2.48,2.48,0,0,1-.154-.622,2.953,2.953,0,0,1-.205.5,1.369,1.369,0,0,1-.3.391.637.637,0,0,1-.4.167.624.624,0,0,1-.494-.185,1.492,1.492,0,0,1-.329-.532,3.506,3.506,0,0,1-.187-.734,5.007,5.007,0,0,1-.064-.64c0-.158,0-.261,0-.308q0-1.169.3-1.364a.486.486,0,0,1,.25-.083.435.435,0,0,1,.352.133.457.457,0,0,1,.137.324.664.664,0,0,1-.025.171,4.2,4.2,0,0,0-.075.985,5.23,5.23,0,0,0,.129,1.382q.071.223.189.217.392-.021.667-2.7.039-.378.053-.57l.007-.071a.353.353,0,0,1,.141-.255.506.506,0,0,1,.273-.1.469.469,0,0,1,.348.129.545.545,0,0,1,.159.431q0,.313-.021.675-.025.509-.025,1.029,0,.308.011.619a4.355,4.355,0,0,0,.271,1.471.177.177,0,0,1,.014.066.189.189,0,0,1-.05.12A.218.218,0,0,1,363.25,375.885Z" transform="translate(-354.425 -364.859)" fill="#8e8e8e"/>
        <path id="Path_8" data-name="Path 8" d="M375.412,375.547a.187.187,0,0,1-.05,0,1.156,1.156,0,0,1-.871-.506,1.839,1.839,0,0,1-.228-.935,8.185,8.185,0,0,1,.093-1.159,6.951,6.951,0,0,0,.089-.935,1.464,1.464,0,0,0-.011-.21.159.159,0,0,0-.032-.088.061.061,0,0,0-.047-.018q-.321.025-.757,2.464-.132.779-.154.887a.349.349,0,0,1-.159.222.582.582,0,0,1-.28.093.468.468,0,0,1-.244-.048.373.373,0,0,1-.173-.174.594.594,0,0,1-.057-.265q.032-.523.032-.909a8.9,8.9,0,0,0-.218-2.232.526.526,0,0,1-.018-.134.329.329,0,0,1,.064-.2.382.382,0,0,1,.289-.151.469.469,0,0,1,.332.124.89.89,0,0,1,.253.465,6.033,6.033,0,0,1,.161.941,5.263,5.263,0,0,1,.277-.836,2.205,2.205,0,0,1,.394-.631.8.8,0,0,1,.539-.271.563.563,0,0,1,.574.374,1.659,1.659,0,0,1,.157.734,6.533,6.533,0,0,1-.068.778,9.459,9.459,0,0,0-.107,1.207,2.82,2.82,0,0,0,.043.507.718.718,0,0,0,.293.51.186.186,0,0,1,.093.165.252.252,0,0,1-.018.09A.219.219,0,0,1,375.412,375.547Z" transform="translate(-363.054 -364.698)" fill="#8e8e8e"/>
        <path id="Path_9" data-name="Path 9" d="M386.252,373.368a.969.969,0,0,1-.946-.466,2.919,2.919,0,0,1-.435-1.687,3.694,3.694,0,0,1,.185-1.154,1.9,1.9,0,0,1,.682-1,1.194,1.194,0,0,1,.581-.2.765.765,0,0,1,.771.4,1.474,1.474,0,0,1,.211.791l0,.11a.215.215,0,0,1-.066.15.237.237,0,0,1-.145.069.18.18,0,0,1-.152-.049.189.189,0,0,1-.059-.139v-.124q0-.365-.15-.475a.228.228,0,0,0-.157-.045q-.257.025-.507.544a3.05,3.05,0,0,0-.261,1.339,3.31,3.31,0,0,0,.089.856.923.923,0,0,0,.239.453.42.42,0,0,0,.325.115.5.5,0,0,0,.319-.2,1.171,1.171,0,0,0,.237-.452,1.986,1.986,0,0,0,.078-.557c0-.076,0-.151,0-.227a.23.23,0,0,1,.2-.229.208.208,0,0,1,.148.037.186.186,0,0,1,.073.136c.007.077.011.155.011.233a2.323,2.323,0,0,1-.225,1.043A1.231,1.231,0,0,1,386.252,373.368Z" transform="translate(-372.055 -363.13)" fill="#8e8e8e"/>
        <path id="Path_10" data-name="Path 10" d="M398.785,369.808a.848.848,0,0,1-.607-.169.875.875,0,0,1-.146-.14,2.146,2.146,0,0,1-.382-1.4q0-.673.046-1.281.039-.5.039-.67a1.368,1.368,0,0,0-.021-.255c-.014-.075-.05-.11-.107-.1q-.221.024-.407.806a12.738,12.738,0,0,0-.253,1.533q-.082.735-.1,1.063a.372.372,0,0,1-.121.268.459.459,0,0,1-.268.12.452.452,0,0,1-.33-.106.6.6,0,0,1-.195-.421,16.559,16.559,0,0,1-.143-2q0-1.595.153-3.18a.421.421,0,0,1,.137-.285.472.472,0,0,1,.269-.122.48.48,0,0,1,.25.041.453.453,0,0,1,.243.453l-.007.054q-.132,1.8-.139,3.083.385-1.951,1.113-2.03.828-.091.828,1.159,0,.425-.046,1.043-.047.572-.047.983,0,.9.379,1.159a.177.177,0,0,1,.082.15.22.22,0,0,1-.025.095A.249.249,0,0,1,398.785,369.808Z" transform="translate(-379.895 -359.265)" fill="#8e8e8e"/>
        <path id="Path_11" data-name="Path 11" d="M409.675,372.427a1.1,1.1,0,0,1-.723-.118.872.872,0,0,1-.378-.452,1.67,1.67,0,0,1-.1-.575q0-.266.236-.293t.225.158a.728.728,0,0,0,.189.566.423.423,0,0,0,.353.086q.932-.111.932-2,0-.237-.032-1a4.225,4.225,0,0,1-.261.728,1.916,1.916,0,0,1-.378.55.873.873,0,0,1-.521.254.883.883,0,0,1-.953-.672,4.177,4.177,0,0,1-.242-1.549,6.952,6.952,0,0,1,.053-.853,4.064,4.064,0,0,1,.118-.616.431.431,0,0,1,.161-.24.536.536,0,0,1,.257-.1.455.455,0,0,1,.271.052.354.354,0,0,1,.173.182.584.584,0,0,1,.045.213.883.883,0,0,1-.029.211q-.029.115-.063.364t-.061.571q-.027.322-.027.655a4.242,4.242,0,0,0,.041.613,1.288,1.288,0,0,0,.135.447.255.255,0,0,0,.266.146q.285-.034.51-.791a9.182,9.182,0,0,0,.289-1.477,10.437,10.437,0,0,0,.089-1.046.449.449,0,0,1,.393-.47.427.427,0,0,1,.353.125.711.711,0,0,1,.179.5q.017.317.068.8.114,1.123.114,1.938a7.936,7.936,0,0,1-.075,1.143,2.522,2.522,0,0,1-.775,1.619A1.555,1.555,0,0,1,409.675,372.427Z" transform="translate(-388.669 -361.061)" fill="#8e8e8e"/>
        <path id="Path_12" data-name="Path 12" d="M429.823,365.941a1.108,1.108,0,0,1-.683-.1,1.289,1.289,0,0,1-.471-.438,2.553,2.553,0,0,1-.3-.636,3.959,3.959,0,0,1-.155-.708,5.184,5.184,0,0,1-.045-.641,5.093,5.093,0,0,1,.055-.711,4.9,4.9,0,0,1,.182-.793,3.372,3.372,0,0,1,.339-.748,2.122,2.122,0,0,1,.523-.584,1.516,1.516,0,0,1,.738-.294,1.193,1.193,0,0,1,.728.1,1.029,1.029,0,0,1,.443.451,1.224,1.224,0,0,1,.155.491c0,.131.005.2.005.214a2.326,2.326,0,0,1-.118.721,2.505,2.505,0,0,1-.385.728.232.232,0,0,1-.114.086l-.061.012a.223.223,0,0,1-.139-.028.157.157,0,0,1-.077-.1c0-.032-.005-.05-.005-.054a.248.248,0,0,1,.05-.145,1.7,1.7,0,0,0,.237-.428,2.33,2.33,0,0,0,.134-.47,2.36,2.36,0,0,0,.036-.375.81.81,0,0,0-.146-.523.351.351,0,0,0-.332-.1.854.854,0,0,0-.507.255,1.92,1.92,0,0,0-.364.53,3.71,3.71,0,0,0-.241.663,5.12,5.12,0,0,0-.13.664,4.366,4.366,0,0,0-.039.521,4.9,4.9,0,0,0,.112,1.192,1.147,1.147,0,0,0,.3.587.509.509,0,0,0,.41.132.719.719,0,0,0,.362-.177,1.169,1.169,0,0,0,.307-.429,1.79,1.79,0,0,0,.137-.667.24.24,0,0,1,.068-.158.254.254,0,0,1,.157-.081.2.2,0,0,1,.159.044.178.178,0,0,1,.063.142,2.205,2.205,0,0,1-.346,1.177A1.416,1.416,0,0,1,429.823,365.941Z" transform="translate(-403.132 -356.975)" fill="#8e8e8e"/>
        <path id="Path_13" data-name="Path 13" d="M444.348,364.131a.845.845,0,0,1-.753-.291,2.1,2.1,0,0,1-.382-1.387q0-.673.046-1.282.039-.5.039-.672a1.357,1.357,0,0,0-.021-.254c-.014-.075-.05-.108-.107-.1q-.221.03-.407.817a12.907,12.907,0,0,0-.253,1.54q-.082.738-.1,1.065a.381.381,0,0,1-.121.272.476.476,0,0,1-.268.128.441.441,0,0,1-.33-.1.578.578,0,0,1-.195-.415,16.437,16.437,0,0,1-.143-2q0-1.595.153-3.185a.436.436,0,0,1,.138-.289.487.487,0,0,1,.27-.13.475.475,0,0,1,.25.034.437.437,0,0,1,.243.445l-.007.054q-.132,1.8-.139,3.087.385-1.962,1.113-2.06.828-.112.828,1.139,0,.425-.046,1.044-.047.573-.046.984,0,.9.378,1.15a.173.173,0,0,1,.082.148.227.227,0,0,1-.025.1A.256.256,0,0,1,444.348,364.131Z" transform="translate(-412.596 -355.235)" fill="#8e8e8e"/>
        <path id="Path_14" data-name="Path 14" d="M454.249,362.934a.514.514,0,0,1-.319-.067.579.579,0,0,1-.252-.324,5.01,5.01,0,0,1-.261-1.779q0-.659.061-1.284a.329.329,0,0,1,.136-.236.576.576,0,0,1,.278-.114.543.543,0,0,1,.253.024.345.345,0,0,1,.185.145.481.481,0,0,1,.064.259q-.05.705-.05,1.18,0,.181,0,.361a4.52,4.52,0,0,0,.246,1.434.322.322,0,0,1,.014.094.243.243,0,0,1-.075.173A.474.474,0,0,1,454.249,362.934Zm-.211-4.188a.323.323,0,0,1-.305-.125.577.577,0,0,1-.126-.387.733.733,0,0,1,.126-.423.441.441,0,0,1,.305-.209.323.323,0,0,1,.305.127.585.585,0,0,1,.127.388.724.724,0,0,1-.127.421A.441.441,0,0,1,454.038,358.746Z" transform="translate(-421.252 -355.055)" fill="#8e8e8e"/>
        <path id="Path_15" data-name="Path 15" d="M460.475,364.156a.931.931,0,0,1-.946-.426,2.825,2.825,0,0,1-.435-1.667,3.782,3.782,0,0,1,.185-1.162,2.017,2.017,0,0,1,.682-1.035,1.24,1.24,0,0,1,.582-.227.734.734,0,0,1,.771.372,1.436,1.436,0,0,1,.211.783l0,.11a.223.223,0,0,1-.066.152.245.245,0,0,1-.144.074.175.175,0,0,1-.152-.043.182.182,0,0,1-.059-.137v-.124q0-.365-.15-.469a.222.222,0,0,0-.157-.039q-.257.034-.507.564a3.116,3.116,0,0,0-.26,1.35,3.248,3.248,0,0,0,.089.852.876.876,0,0,0,.239.443.407.407,0,0,0,.325.1.533.533,0,0,0,.32-.209,1.23,1.23,0,0,0,.237-.46,2.008,2.008,0,0,0,.078-.56q0-.113,0-.226a.24.24,0,0,1,.2-.235.2.2,0,0,1,.148.032.179.179,0,0,1,.073.134q.011.116.01.232a2.366,2.366,0,0,1-.225,1.05A1.3,1.3,0,0,1,460.475,364.156Z" transform="translate(-425.326 -356.514)" fill="#8e8e8e"/>
        <path id="Path_16" data-name="Path 16" d="M472.407,360.244a.273.273,0,0,1-.061,0,1.011,1.011,0,0,1-.534-.208,1.337,1.337,0,0,1-.334-.41,5.3,5.3,0,0,1-.235-.508,5.14,5.14,0,0,0-.213-.472,1.437,1.437,0,0,0-.291-.391c0,.1,0,.2.005.3s.005.188.005.277,0,.183-.007.274a1.051,1.051,0,0,1-.243.779.523.523,0,0,1-.264.116.5.5,0,0,1-.246-.028.341.341,0,0,1-.182-.164.62.62,0,0,1-.064-.3l.007-.075q.064-1.029.064-2.078a25.846,25.846,0,0,0-.178-3.105v-.028a.369.369,0,0,1,.111-.266.517.517,0,0,1,.3-.15.4.4,0,0,1,.316.1.689.689,0,0,1,.191.446,23.829,23.829,0,0,1,.186,3,3.336,3.336,0,0,0,.849-.863,1.61,1.61,0,0,0,.3-.863,1.967,1.967,0,0,0-.014-.222l0-.028a.218.218,0,0,1,.036-.115.255.255,0,0,1,.186-.116.2.2,0,0,1,.125.023q.129.069.128.473a2.729,2.729,0,0,1-1.413,2.057,2.489,2.489,0,0,1,.55.655,5.729,5.729,0,0,1,.33.677,3.228,3.228,0,0,0,.27.539.507.507,0,0,0,.368.247.18.18,0,0,1,.128.071.2.2,0,0,1,.039.114.211.211,0,0,1-.1.186A.265.265,0,0,1,472.407,360.244Z" transform="translate(-432.894 -352.331)" fill="#8e8e8e"/>
        <path id="Path_17" data-name="Path 17" d="M481.726,361.707a.957.957,0,0,1-.956-.437,2.813,2.813,0,0,1-.36-1.6,3.769,3.769,0,0,1,.185-1.161,1.993,1.993,0,0,1,.682-1.028,1.224,1.224,0,0,1,.582-.221.734.734,0,0,1,.621.186.959.959,0,0,1,.25.735,2.193,2.193,0,0,1-1.385,1.928,2.37,2.37,0,0,0,.143.712q.15.389.432.354.174-.022.316-.3a1.428,1.428,0,0,0,.141-.66v-.075a.259.259,0,0,1,.059-.163.226.226,0,0,1,.155-.086.192.192,0,0,1,.145.037.173.173,0,0,1,.066.139l0,.12a1.881,1.881,0,0,1-.225.913A1.088,1.088,0,0,1,481.726,361.707Zm-.389-2.046a1.7,1.7,0,0,0,.685-.624,1.654,1.654,0,0,0,.278-.8q0-.319-.193-.3-.257.031-.514.559A2.824,2.824,0,0,0,481.337,359.661Z" transform="translate(-440.624 -354.805)" fill="#8e8e8e"/>
        <path id="Path_18" data-name="Path 18" d="M493.4,361.188a.176.176,0,0,1-.05,0,1.122,1.122,0,0,1-.871-.481,1.8,1.8,0,0,1-.228-.927,8.3,8.3,0,0,1,.093-1.162,7.013,7.013,0,0,0,.089-.939,1.509,1.509,0,0,0-.01-.21.157.157,0,0,0-.032-.087.059.059,0,0,0-.047-.016q-.321.037-.756,2.493-.132.785-.153.893a.373.373,0,0,1-.159.229.611.611,0,0,1-.28.105.457.457,0,0,1-.244-.036.347.347,0,0,1-.173-.165.576.576,0,0,1-.057-.263q.032-.525.032-.911a8.756,8.756,0,0,0-.218-2.221.5.5,0,0,1-.018-.132.345.345,0,0,1,.064-.206.405.405,0,0,1,.289-.166.446.446,0,0,1,.332.108.84.84,0,0,1,.253.454,5.847,5.847,0,0,1,.161.934,5.472,5.472,0,0,1,.277-.847,2.308,2.308,0,0,1,.394-.646.833.833,0,0,1,.539-.29.543.543,0,0,1,.575.358,1.636,1.636,0,0,1,.157.73,6.588,6.588,0,0,1-.068.78,9.477,9.477,0,0,0-.107,1.209,2.793,2.793,0,0,0,.043.506.7.7,0,0,0,.293.5.181.181,0,0,1,.093.164.263.263,0,0,1-.018.091A.225.225,0,0,1,493.4,361.188Z" transform="translate(-447.738 -354.406)" fill="#8e8e8e"/>
        <path id="Path_19" data-name="Path 19" d="M510.667,355.488a1.37,1.37,0,0,1-.658-.078.884.884,0,0,1-.573-.851,1.2,1.2,0,0,1,.2-.629c.088-.129.173-.2.253-.206q.214-.021.214.185a.337.337,0,0,1-.057.172.781.781,0,0,0-.128.413.427.427,0,0,0,.107.328.336.336,0,0,0,.271.082,1.252,1.252,0,0,0,.505-.183,1.923,1.923,0,0,0,.466-.376.681.681,0,0,0,.2-.418.933.933,0,0,0-.289-.681,3.268,3.268,0,0,0-.653-.465q-.221-.131-.437-.281a2.369,2.369,0,0,1-.394-.342,1.483,1.483,0,0,1-.285-.459,1.681,1.681,0,0,1-.107-.631,1.41,1.41,0,0,1,.251-.819,1.938,1.938,0,0,1,.653-.592,2.117,2.117,0,0,1,.851-.268,1.34,1.34,0,0,1,.674.095,1.229,1.229,0,0,1,.485.382,1.622,1.622,0,0,1,.279.586.225.225,0,0,1,.007.053.2.2,0,0,1-.032.109.243.243,0,0,1-.193.116.226.226,0,0,1-.114-.018.2.2,0,0,1-.1-.123q-.171-.676-.749-.624a1.006,1.006,0,0,0-.289.082,1.519,1.519,0,0,0-.325.188,1.1,1.1,0,0,0-.263.278.635.635,0,0,0-.105.356.943.943,0,0,0,.143.525,1.6,1.6,0,0,0,.37.4q.226.176.487.34.214.14.421.29a2.4,2.4,0,0,1,.375.336,1.5,1.5,0,0,1,.268.421,1.4,1.4,0,0,1,.1.548,1.52,1.52,0,0,1-.252.856,1.964,1.964,0,0,1-.667.622A2.188,2.188,0,0,1,510.667,355.488Z" transform="translate(-461.358 -349.157)" fill="#8e8e8e"/>
        <path id="Path_20" data-name="Path 20" d="M522.554,356.594a.932.932,0,0,1-.592-.171,1.555,1.555,0,0,1-.539-.666,7.246,7.246,0,0,1-.364-2.755q-.171.036-.328.073l-.068.006q-.164.014-.164-.174a.186.186,0,0,1,.025-.091.209.209,0,0,1,.121-.1,4.084,4.084,0,0,1,.421-.106q.068-1.632.3-1.828a.44.44,0,0,1,.257-.109.5.5,0,0,1,.273.056.394.394,0,0,1,.185.193.639.639,0,0,1,.055.263.846.846,0,0,1-.014.147,10.123,10.123,0,0,0-.114,1.171q.193-.015.514-.014.228,0,.228.167a.185.185,0,0,1-.036.105.216.216,0,0,1-.182.091l-.535.034q0,.216,0,.674a7.994,7.994,0,0,0,.185,1.78q.182.782.453.9a.16.16,0,0,1,.118.151A.186.186,0,0,1,522.554,356.594Z" transform="translate(-469.397 -350.086)" fill="#8e8e8e"/>
        <path id="Path_21" data-name="Path 21" d="M529.906,356.735a.426.426,0,0,1-.341-.14.724.724,0,0,1-.152-.521q0-1.566-.052-2.08a8.269,8.269,0,0,0-.155-.974.564.564,0,0,1-.011-.109.351.351,0,0,1,.078-.229.4.4,0,0,1,.293-.148.445.445,0,0,1,.325.123.831.831,0,0,1,.228.467,5.017,5.017,0,0,1,.086.77q.339-1.433.831-1.6a.862.862,0,0,1,.221-.045.591.591,0,0,1,.236.032.192.192,0,0,1,.143.2.244.244,0,0,1-.232.24.571.571,0,0,1-.105,0,.658.658,0,0,0-.123,0q-.325.019-.7,1.985a12.665,12.665,0,0,0-.157,1.651Q530.3,356.705,529.906,356.735Z" transform="translate(-475.64 -351.216)" fill="#8e8e8e"/>
        <path id="Path_22" data-name="Path 22" d="M538.713,353.938a.55.55,0,0,1-.32-.093.647.647,0,0,1-.251-.344,5.181,5.181,0,0,1-.261-1.8q0-.659.061-1.279a.3.3,0,0,1,.135-.226.534.534,0,0,1,.278-.091.558.558,0,0,1,.254.045.388.388,0,0,1,.186.161.511.511,0,0,1,.064.264q-.05.7-.05,1.175,0,.18,0,.361a4.712,4.712,0,0,0,.246,1.455.347.347,0,0,1,.014.095.223.223,0,0,1-.075.167A.434.434,0,0,1,538.713,353.938Zm-.211-4.206a.353.353,0,0,1-.305-.15.619.619,0,0,1-.127-.4.684.684,0,0,1,.127-.413.4.4,0,0,1,.305-.185.352.352,0,0,1,.305.153.628.628,0,0,1,.127.4.678.678,0,0,1-.127.41A.4.4,0,0,1,538.5,349.732Z" transform="translate(-481.873 -348.587)" fill="#8e8e8e"/>
        <path id="Path_23" data-name="Path 23" d="M544.644,358.364a.49.49,0,0,1-.245-.056.472.472,0,0,1-.2-.2.791.791,0,0,1-.079-.381q0-2.459-.246-4.953l0-.028a.39.39,0,0,1,.12-.283.416.416,0,0,1,.287-.128.453.453,0,0,1,.225.051.467.467,0,0,1,.189.191.926.926,0,0,1,.1.361q.082.759.132,1.536c.022-.112.05-.251.087-.418a5.376,5.376,0,0,1,.146-.524,3.368,3.368,0,0,1,.219-.516,1.452,1.452,0,0,1,.3-.4.606.606,0,0,1,.4-.165.628.628,0,0,1,.505.224,1.544,1.544,0,0,1,.319.616,2.975,2.975,0,0,1,.111.827,3.4,3.4,0,0,1-.216,1.226,1.555,1.555,0,0,1-.546.778,1.248,1.248,0,0,1-.634.225,1.614,1.614,0,0,1-.493-.068q-.078.867-.089,1.722a.328.328,0,0,1-.119.263A.453.453,0,0,1,544.644,358.364Zm.567-2.566a.628.628,0,0,0,.5-.265,1.751,1.751,0,0,0,.3-.691,3.83,3.83,0,0,0,.093-.83,3.421,3.421,0,0,0-.055-.663c-.037-.184-.089-.275-.155-.274s-.144.082-.211.239a3.873,3.873,0,0,0-.186.587q-.086.352-.151.733t-.109.7q-.043.315-.057.468Z" transform="translate(-486.173 -351.273)" fill="#8e8e8e"/>
        <path id="Path_24" data-name="Path 24" d="M557.528,356.015a.888.888,0,0,1-.628-.227.739.739,0,0,1-.257-.571.93.93,0,0,1,.136-.474q.082-.146.185-.148a.153.153,0,0,1,.145.065.232.232,0,0,1,.041.117.24.24,0,0,1-.032.11.635.635,0,0,0-.082.31.394.394,0,0,0,.071.263.222.222,0,0,0,.178.081.564.564,0,0,0,.412-.2.626.626,0,0,0,.184-.438.86.86,0,0,0-.173-.549,2.573,2.573,0,0,0-.412-.412,3.976,3.976,0,0,1-.361-.339,1.579,1.579,0,0,1-.291-.441,1.543,1.543,0,0,1-.116-.636,1.064,1.064,0,0,1,.191-.627,1.4,1.4,0,0,1,.48-.431,1.227,1.227,0,0,1,.582-.161.991.991,0,0,1,.669.248,1.015,1.015,0,0,1,.348.673v.036a.144.144,0,0,1-.062.121.221.221,0,0,1-.134.046.145.145,0,0,1-.157-.123q-.117-.535-.5-.533a.577.577,0,0,0-.248.071.681.681,0,0,0-.244.21.555.555,0,0,0-.1.341.819.819,0,0,0,.091.4,1.216,1.216,0,0,0,.239.306,4.064,4.064,0,0,0,.32.268,4.046,4.046,0,0,1,.387.335,1.592,1.592,0,0,1,.312.439,1.413,1.413,0,0,1,.125.624,1.132,1.132,0,0,1-.191.652,1.376,1.376,0,0,1-1.108.6Z" transform="translate(-495.257 -350.539)" fill="#8e8e8e"/>
      </g>
    </g>
    <g id="Group_6" data-name="Group 6" transform="translate(54.231 19.429)">
      <path id="Path_25" data-name="Path 25" d="M517.267,250.861a.815.815,0,0,0-.212.028c-.329.089-.414.189-.882.737a16.646,16.646,0,0,1-5.258,4.116,7.823,7.823,0,0,1,.308-2.145,1.93,1.93,0,0,0,.486-.069c1.315-.355,4.061-3.921,5.54-6.363,1-1.675,1.3-2.624,1.1-3.383-.269-.983-1.7-1.644-2.877-1.644a2.623,2.623,0,0,0-.681.085,9.028,9.028,0,0,0-3.65,2.688c-3.054,3.386-5,8.1-4.344,10.507a4.864,4.864,0,0,0,4.365,3.475h0a3.216,3.216,0,0,0,.837-.108c1.642-.443,4.037-2.814,5.7-5.64a2.1,2.1,0,0,0,.4-1.607A.873.873,0,0,0,517.267,250.861Zm-2.969-5.33a7.511,7.511,0,0,1,1.4-1.244c.1-.026.139,0,.156.062.176.645-.524,2.289-1.668,3.844a8.5,8.5,0,0,1-2.875,2.749A18.213,18.213,0,0,1,514.3,245.53Zm-5.13,3.986a5.925,5.925,0,0,0-.338.594,10,10,0,0,0-.724,1.918c-.107.358-.176.725-.248,1.069s-.109.671-.147.951-.067.516-.074.683-.029.262-.029.262-.017-.095-.038-.261-.046-.4-.055-.694a7.373,7.373,0,0,1,.26-2.1,6.606,6.606,0,0,1,.391-1.068,5.032,5.032,0,0,1,.5-.861,3.245,3.245,0,0,1,.655-.709Z" transform="translate(-506.666 -242.136)" fill="#8e8e8e"/>
    </g>
    <g id="Group_7" data-name="Group 7" transform="translate(65.205 19.276)">
      <path id="Path_26" data-name="Path 26" d="M558.784,243.548a2.644,2.644,0,0,0-2.6-1.953,2.725,2.725,0,0,0-.565.059c-1.453.309-3.19,1.8-4.551,3.832a3.316,3.316,0,0,0-.328-.4,2.8,2.8,0,0,0-1.9-.927,1.429,1.429,0,0,0-.3.03.874.874,0,0,0-.686,1.1,1.669,1.669,0,0,0,.131.4,1.873,1.873,0,0,1,.091.307c.191.884-.217,3.529-2,8.084-.447,1.2-.605,1.7-.5,2.189a3.644,3.644,0,0,0,2.6,2.37,1.051,1.051,0,0,0,.214-.022,1.476,1.476,0,0,0,1.017-1.016l.011-.031.008-.029c.031-.117.3-.9.786-2.083l1.759-4.59a22.689,22.689,0,0,1,2.821-5.144,4.741,4.741,0,0,1,1.947-1.448,1.2,1.2,0,0,1,.248-.028.542.542,0,0,1,.327.088l.047.035.111.055a1.065,1.065,0,0,0,.509.153h0a.823.823,0,0,0,.171-.018.814.814,0,0,0,.551-.4A.865.865,0,0,0,558.784,243.548Zm-10.156,5.466c-.055.363-.115.79-.216,1.239s-.226.925-.368,1.4-.312.932-.486,1.358-.353.817-.506,1.151c-.319.664-.566,1.088-.566,1.088l.11-.318.3-.833c.128-.343.265-.747.415-1.177s.3-.892.447-1.356.277-.93.4-1.369.225-.852.306-1.208l.272-1.19S548.723,248.285,548.628,249.015Z" transform="translate(-545.543 -241.595)" fill="#8e8e8e"/>
    </g>
    <g id="Group_8" data-name="Group 8" transform="translate(35.326 20.204)">
      <path id="Path_27" data-name="Path 27" d="M460.725,247.218c-.247-1.258-2.125-2.335-3.489-2.335a2.377,2.377,0,0,0-.45.041c-1.608.311-3.221,1.434-5.33,3.765a4.069,4.069,0,0,0-.08-.718,2.768,2.768,0,0,0-2.5-2.364,1.985,1.985,0,0,0-.379.036.942.942,0,0,0-.7,1.115l.078.4.039.026c.116.713-.226,2.425-1.017,5.09-.615,2.088-2.1,6.172-4.816,13.243l-1.52,3.975c-.714,1.906-1,2.928-.8,3.944.222,1.132,1.563,2.707,2.579,2.707h0a1.06,1.06,0,0,0,.2-.019c.708-.137.846-.723,1.076-1.7a19.83,19.83,0,0,1,.774-2.705l3.769-11.08a12.987,12.987,0,0,0,5.817-3.009C457.562,254.708,461.215,249.715,460.725,247.218ZM445.6,259.725c-.386,1.6-.79,2.242-4.141,10.875.006.006.008.009,0,0-.072-.062-.017-.02,0,0l4.337-12.162a1.336,1.336,0,0,0,0,.351A5.408,5.408,0,0,1,445.6,259.725Zm11.384-12.055a17.985,17.985,0,0,1-3.3,6.085c-2.14,2.9-4.375,4.965-5.71,5.326.415-1.2.764-2.224.984-2.846a16.748,16.748,0,0,1,2.771-4.927c1.674-2.128,3.855-3.946,5.077-4.182.132-.026.2-.006.224.093C457.036,247.251,457,247.428,456.982,247.67Z" transform="translate(-439.696 -244.883)" fill="#8e8e8e"/>
    </g>
    <g id="Group_9" data-name="Group 9" transform="translate(28.162 20.254)">
      <path id="Path_28" data-name="Path 28" d="M425.11,246.532c-.238-.172-.482-.329-.717-.48s-.455-.293-.666-.446a2.6,2.6,0,0,0-1.529-.548,2.714,2.714,0,0,0-1.806.779,6.448,6.448,0,0,0-1.7,8.055c.332.72.611,1.456.907,2.234l.17.446-.417.15a7.176,7.176,0,0,0-4.915,5.66,3.329,3.329,0,0,0,1.165,3.629,4.458,4.458,0,0,0,2.683.995,4.1,4.1,0,0,0,1.615-.348,6.423,6.423,0,0,0,3.837-7.733c-.162-.763-.337-1.43.233-1.612.394-.126,1.4-.417,1.551-1.093a.24.24,0,0,0-.043-.2l-.027-.036a.692.692,0,0,0-.63-.269l-1.831.207a9.645,9.645,0,0,1,.148-4.441,1.7,1.7,0,0,1,.843-1.135c.218.093.251.118.157.722a4.745,4.745,0,0,0-.064.56,2.438,2.438,0,0,0,.219.98c.038.1.075.2.1.28h0a.72.72,0,0,0,1.084.378l.321-.209c.068-.051.157-.105.252-.163.276-.168.255-.207.445-.574C427.746,249.916,427.319,248.13,425.11,246.532Zm-6.242,17.738c-.661.624-1.123.468-1.275-.417a2.009,2.009,0,0,1,.065-.971,7.466,7.466,0,0,1,3.357-4.1A6.843,6.843,0,0,1,418.868,264.27Zm3.789-18.334a1.61,1.61,0,0,0-.275-.007,2.061,2.061,0,0,0-.918.275,2.761,2.761,0,0,0-.522.371,4.582,4.582,0,0,0-.492.521,5.644,5.644,0,0,0-.794,1.341,6.943,6.943,0,0,0-.471,1.492c-.045.246-.088.485-.11.714a6.216,6.216,0,0,0-.039.648c0,.2,0,.386.014.55s.027.306.04.424l.055.369s-.044-.129-.1-.36a5.5,5.5,0,0,1-.148-.98,6.3,6.3,0,0,1,.075-1.4,7.13,7.13,0,0,1,.455-1.553,5.888,5.888,0,0,1,.858-1.38,3.381,3.381,0,0,1,1.12-.878,2,2,0,0,1,.984-.2,1.306,1.306,0,0,1,.276.043l.1.022Z" transform="translate(-414.32 -245.058)" fill="#8e8e8e"/>
    </g>
    <g id="Group_10" data-name="Group 10" transform="translate(22.203 27.62)">
      <path id="Path_29" data-name="Path 29" d="M400.09,274.084c-.317-1.616-1.493-2.931-2.621-2.931a1.432,1.432,0,0,0-.272.026.813.813,0,0,0-.665.938,1.031,1.031,0,0,0,.139.36l0,.02c.089.456-.275,1.58-1.773,5.466-1.573,4.063-1.886,5.417-1.6,6.9a3.144,3.144,0,0,0,2.628,2.586,1.587,1.587,0,0,0,.3-.028c.229-.044.756-.24.7-1.1l-.008-.115a62.455,62.455,0,0,1,2.29-7.007C400.177,276.573,400.4,275.641,400.09,274.084Zm-2.795,1.436c-.143,1.172-.556,1.663-3.14,8.089.01,0,.014.006,0,0-.119-.04-.03-.014,0,0l3.091-9.028a.565.565,0,0,0,.088.252C397.4,274.93,397.314,275.364,397.295,275.52Z" transform="translate(-393.208 -271.153)" fill="#8e8e8e"/>
    </g>
    <g id="Group_11" data-name="Group 11" transform="translate(10.606 28.418)">
      <path id="Path_30" data-name="Path 30" d="M365.512,275.972a2.622,2.622,0,0,0-2.6-1.992,2.727,2.727,0,0,0-.512.049c-1.448.28-3.2,1.721-4.587,3.716a3.279,3.279,0,0,0-.315-.394,2.8,2.8,0,0,0-1.9-.957,1.409,1.409,0,0,0-.267.025.879.879,0,0,0-.623.439.936.936,0,0,0-.083.643,1.649,1.649,0,0,0,.123.4,1.831,1.831,0,0,1,.084.306c.173.88-.281,3.5-2.134,7.985-.466,1.185-.633,1.679-.537,2.166.186.949,1.593,2.4,2.563,2.4a1.027,1.027,0,0,0,.194-.018,1.47,1.47,0,0,0,1.031-.993l.012-.03.008-.029c.033-.116.31-.891.818-2.053l1.832-4.524a22.487,22.487,0,0,1,2.895-5.052,4.7,4.7,0,0,1,1.956-1.4,1.19,1.19,0,0,1,.228-.023.548.548,0,0,1,.339.093l.047.036.109.057a1.055,1.055,0,0,0,.519.162.832.832,0,0,0,.808-1.018ZM353.68,287.979l2.259-8.19C356.215,283.531,353.68,287.979,353.68,287.979Z" transform="translate(-352.127 -273.98)" fill="#8e8e8e"/>
    </g>
    <g id="Group_13" data-name="Group 13" transform="translate(0 5.361)">
      <path id="Path_31" data-name="Path 31" d="M495.023,308.476c-1.432-2.519-4.933-3.826-10.4-3.885l-.306,0c-5.644,0-14.978,2.012-19.273,3.4l-.19.062-2.593,7.622.727-.2a65.744,65.744,0,0,1,16.573-2.5c6.388,0,10.785,1.464,13.071,4.351a.742.742,0,0,0,1.245-.057C494.818,315.675,496.819,311.633,495.023,308.476Zm-7.031,4.69c-.1-.045-.214-.1-.34-.151l-.41-.155-.463-.177-.523-.169c-.183-.055-.369-.123-.569-.175l-.617-.158a6.693,6.693,0,0,0-.655-.144c-.226-.039-.452-.1-.687-.134-.471-.068-.956-.142-1.454-.184-.5-.062-1-.07-1.51-.1-.508,0-1.016-.024-1.517,0-.5.009-.994.042-1.471.071-.475.05-.939.075-1.375.132s-.85.1-1.231.158-.731.1-1.039.158-.581.09-.8.134l-.7.118.669-.241c.213-.077.474-.161.778-.249s.646-.193,1.025-.281.79-.188,1.23-.27.906-.156,1.39-.222c.486-.047.988-.117,1.5-.129.514-.034,1.037-.023,1.561-.025.523.034,1.047.052,1.559.123.515.043,1.012.158,1.495.245.24.052.474.114.7.175s.452.121.664.2l.62.211c.2.073.383.163.564.238s.353.148.513.228l.446.241.389.212c.118.07.221.144.316.205l.589.4Z" transform="translate(-420.564 -272.892)" fill="#be1f25"/>
      <g id="Group_12" data-name="Group 12">
        <path id="Path_32" data-name="Path 32" d="M349.307,229.843c-.8.3-1.219.44-1.627.578s-.788.266-1.486.53l-.015.006c-.084.036-8.52,3.582-15.913,3.582a18.334,18.334,0,0,1-3.532-.317c-.2-.039-.355-.073-.5-.107a8.051,8.051,0,0,1-4.467-2.784c-.04-.065-.088-.147-.13-.228l-.021-.041-.029-.035a9.421,9.421,0,0,1-1.61-4.136v0a21.32,21.32,0,0,1,.211-5.807,34.158,34.158,0,0,1,3.766-10.446,55.837,55.837,0,0,1,8.124-10.389c.4-.354.758-.657,1.095-.927a17.578,17.578,0,0,1,2.674-1.788,7.13,7.13,0,0,1,2.45-.836.937.937,0,0,1,.113-.007.481.481,0,0,1,.334.113,2.043,2.043,0,0,1,.433.544,6.152,6.152,0,0,1,.383.826c.009.023.019.045.032.071a4.031,4.031,0,0,0,.489.894,2.671,2.671,0,0,0,.825.734,1.909,1.909,0,0,0,.965.233,3.137,3.137,0,0,0,.382-.025,5.272,5.272,0,0,0,.874-.177,1.382,1.382,0,0,0,.319-.143.674.674,0,0,0,.213-.209h0a.7.7,0,0,0,.093-.211,6.034,6.034,0,0,0-.909-5.329,4.87,4.87,0,0,0-3.914-1.7,11.734,11.734,0,0,0-2.542.325c-3.911.857-11.453,4.05-18.016,15.8-2.843,5.105-4.107,10.1-3.759,14.839a8.969,8.969,0,0,0,.112,1.047c.042.312.15,1.092.255,1.577a19.689,19.689,0,0,0,.836,2.9A19.308,19.308,0,0,0,317,231.43a12.312,12.312,0,0,0,1.766,2.552,15.523,15.523,0,0,0,9.248,4.834,23.9,23.9,0,0,0,4.171.34,51.961,51.961,0,0,0,14.245-2.415l.019-.006c.119-.042.364-.1.562-.151.55-.135.736-.18.784-.46l.017-.107a17.035,17.035,0,0,1,.739-2.294l1.575-4.185Zm-30.06-18.18c-.313.683-.561,1.4-.835,2.116-.236.724-.5,1.44-.688,2.167-.215.719-.382,1.438-.546,2.134-.083.347-.131.7-.2,1.033s-.136.668-.173.993c-.088.649-.186,1.263-.223,1.834l-.075.819c-.011.261-.022.509-.032.742-.021.466-.04.874-.022,1.209.013.671.012,1.057.012,1.057s-.052-.38-.128-1.051c-.047-.335-.064-.744-.084-1.215-.011-.235-.022-.486-.034-.75q.009-.4.02-.832c.013-.29,0-.594.036-.9l.087-.966c.023-.332.08-.67.13-1.016s.1-.7.172-1.056c.151-.711.287-1.451.505-2.183.184-.742.446-1.473.681-2.212.286-.721.545-1.453.869-2.146.294-.705.652-1.368.982-2.016.165-.324.352-.629.527-.933s.343-.6.531-.877c.362-.56.7-1.089,1.058-1.55l.5-.67.482-.579c.3-.363.564-.679.8-.921.462-.493.732-.769.732-.769s-.23.31-.644.843c-.215.261-.447.6-.714.982l-.424.61-.445.695c-.321.477-.624,1.021-.959,1.586-.173.279-.322.583-.484.887s-.336.61-.489.934l-.47.983C319.531,210.971,319.4,211.321,319.247,211.663Z" transform="translate(-314.554 -192.303)" fill="#be1f25"/>
      </g>
    </g>
  </g>
</svg>
