<svg xmlns="http://www.w3.org/2000/svg" width="198.612" height="142.895" viewBox="0 0 198.612 142.895">
  <g id="Group_19" data-name="Group 19" transform="translate(0)">
    <path id="Path_33" data-name="Path 33" d="M946.444,257.923c3.595-.873,5.392-3.6,6.962-6.587.849-1.613,1.684-3.239,2.632-4.793a8.531,8.531,0,0,1,5.044-3.843,10.991,10.991,0,0,1,7.068.278c.11.041.215.1.331.153a30.538,30.538,0,0,0-3.295.035,9.825,9.825,0,0,0-7.127,4.462c-1.326,1.9-2.62,3.826-3.977,5.706a21.6,21.6,0,0,1-1.667,1.844l.144.2a13.037,13.037,0,0,0,1.927-1.5c2.023-2.278,3.867-4.725,5.987-6.905A9.808,9.808,0,0,1,968,243.7a7.218,7.218,0,0,1,5.654,3.116c-.485-.183-.8-.292-1.109-.421-2.856-1.2-5.433-.53-7.921,1.087-2.469,1.6-4.233,3.925-6.276,5.964-1.776,1.773-3.575,3.516-6.01,4.391A10.459,10.459,0,0,1,946.444,257.923Z" transform="translate(-777.95 -242.246)" fill="#fecf00"/>
    <g id="Group_16" data-name="Group 16" transform="translate(31.65 123.095)">
      <path id="Path_34" data-name="Path 34" d="M262.709,880.232a3.127,3.127,0,0,0,1.134.038c.48-.079.721-.288.721-.622q0-.572-.325-.632a2.559,2.559,0,0,0-.593.028,2.378,2.378,0,0,1-.717,0,3.892,3.892,0,0,1-.765-.271,4.387,4.387,0,0,0-.642-.251q-.29-.063-.29.491a1.02,1.02,0,0,0,.536.837A2.6,2.6,0,0,0,262.709,880.232Z" transform="translate(-261.232 -874.541)" fill="#fff"/>
      <path id="Path_35" data-name="Path 35" d="M318.46,889.113c.188.035.633-.335,1.336-1.119q.413.483.827.963a.963.963,0,0,0,.545.383.326.326,0,0,0,.282-.086q-.124-.149-.343-.385a1.5,1.5,0,0,1-.431-.753,3.943,3.943,0,0,0,.523.571c.29.282.441.4.453.361.059-.008.088-.091.088-.249a1.115,1.115,0,0,0-.4-.669,6.216,6.216,0,0,1-.5-.546q-.3-.629-.528-1.061a.557.557,0,0,0-.466-.328c-.229-.02-.865.75-1.908,2.286A.588.588,0,0,0,318.46,889.113Z" transform="translate(-306.616 -880.686)" fill="#fff"/>
      <path id="Path_36" data-name="Path 36" d="M286.577,905.834a4.6,4.6,0,0,0,.211-1.337,6.312,6.312,0,0,0-.862-3.218,3.082,3.082,0,0,0-2.629-1.8c-.686-.015-1.07.23-1.152.743q-.211-.341-.308-.511-.22-.351-.466-.359a.629.629,0,0,0-.479.192.653.653,0,0,0-.207.484,6.926,6.926,0,0,0,.611,1.73,5.991,5.991,0,0,1,.611,2.184c0,.972-.292,1.485-.87,1.54-.15-.034-.325-.2-.528-.529a2.945,2.945,0,0,1-.378-.773q-.194-.642-.238-.847a17.032,17.032,0,0,0-.879-2.727q-.176-.406-.492-.978a.768.768,0,0,0-.483-.267.488.488,0,0,0-.418.2.709.709,0,0,0-.18.463q.488,1.366.976,2.727l.4,1.052a3.307,3.307,0,0,1,.237,1.06c0,.264-.1.39-.29.379q-.651-.055-1.319-2.7-.528-2.1-.536-2.131-.343-.957-.774-.992a.862.862,0,0,0-.51.209q-.317.223-.264.43.571,1.95.791,2.634l.325,1.019a3.78,3.78,0,0,1,.211,1.01c0,.217-.083.319-.246.307q-.361-.028-.7-.963-.246-.671-.413-1.24-.369-1.333-.545-2.01-.44-1.553-.914-1.6c-.387-.039-.58.239-.58.837,0,.006.032.135.1.388a14.582,14.582,0,0,1,.431,2.26,3.677,3.677,0,0,1-.185,1.2,1.212,1.212,0,0,1-.721.882,1.5,1.5,0,0,1-.6.037q-.363-.042-.725-.086-.4-.05-.809-.1l-.809-.109-.689-.1q-.482-.057-.876-1.459-.3-1.146-.6-2.293a6.506,6.506,0,0,0-1.047-2.162,2.152,2.152,0,0,0-1.2-.875.881.881,0,0,0-.246-.011c.492.439.739.716.739.84,0,.006-.012.01-.035.011-.006,0-.177-.137-.515-.411a2.209,2.209,0,0,0-.7-.449q-.827-.161-1.451,1.1a4.1,4.1,0,0,0-.475,1.868c0,.129.006.259.017.391a7.407,7.407,0,0,0,.73,2.625,2.888,2.888,0,0,0,2.049,1.694,1.145,1.145,0,0,0,1.117-.434,2.267,2.267,0,0,0,.519-1.187,5.771,5.771,0,0,0,.668,1.261,2.2,2.2,0,0,0,1.187.947v.009l.117.017h.006c.229.033.457.066.686.1q.4.056.809.109t.809.1q.369.046.739.088h.006l.065.008v0a2.528,2.528,0,0,0,1.064-.083,1.17,1.17,0,0,0,.5-.415,2.2,2.2,0,0,0,.361-.6q.105-.332.22-.656a6.048,6.048,0,0,0,.809,1.313,1.922,1.922,0,0,0,1.187.836q.686.053,1.082-.9.791,1.03,1.46,1.065.254.014.484-.405a1.825,1.825,0,0,0,.22-.622,3.178,3.178,0,0,0,.413.565,1.681,1.681,0,0,0,.791.535v.017c.022,0,.043,0,.064,0s.028.008.041.008l.149.006v-.027a1.77,1.77,0,0,0,.879-.427,1.846,1.846,0,0,0,.686-1.334,2.9,2.9,0,0,0,2.515,1.88C285.9,907.074,286.318,906.66,286.577,905.834Zm-20.435-3.477q0,.114.026.387c.018.182.026.32.026.413,0,.527-.2.756-.607.681s-.753-.514-1.046-1.317a5.086,5.086,0,0,1-.36-1.707,2.8,2.8,0,0,1,.264-1.222q.334-.7.923-.587.431.081.941,1.236a8.619,8.619,0,0,1,.554,1.662C266.37,901.819,266.13,901.968,266.142,902.357Zm18.843,3.215q-.721-.078-1.706-2.516a3.455,3.455,0,0,1-.185-1.279q0-1.011.492-1a.915.915,0,0,1,.413.157,2.878,2.878,0,0,1,1.169,1.563,5.551,5.551,0,0,1,.36,1.963Q285.53,905.629,284.985,905.572Z" transform="translate(-262.536 -889.814)" fill="#fff"/>
      <path id="Path_37" data-name="Path 37" d="M402.043,893.92a2.308,2.308,0,0,0,.932.2c1.132-.04,1.7-.408,1.7-1.087q0-.44-.651-.412a2.327,2.327,0,0,0-.523.113,2.249,2.249,0,0,1-.523.111,3.482,3.482,0,0,1-.611-.072c-.254-.045-.346-.072-.279-.082-.472.025-.71.2-.711.528C401.375,893.5,401.6,893.734,402.043,893.92Z" transform="translate(-373.387 -885.825)" fill="#fff"/>
      <path id="Path_38" data-name="Path 38" d="M404.933,892.965l.046,0Z" transform="translate(-376.234 -886.101)" fill="#fff"/>
      <path id="Path_39" data-name="Path 39" d="M392.161,883.692a1.605,1.605,0,0,0-1.512-.975q-.774.052-.976.442-.537-3.589-.879-5.46,0-1-.615-1.116v.528a1.432,1.432,0,0,1-.053.539,4.932,4.932,0,0,0-.325-1.081q-.448.139-.449.516a.725.725,0,0,0,.018.157,47.057,47.057,0,0,1,1.2,7.531q.008.246.031.75t.022.759a4.377,4.377,0,0,1-.2,1.313c-.174.528-.414.823-.717.891a1.985,1.985,0,0,1-.989-.317,3.45,3.45,0,0,0,.51-1.951,5.12,5.12,0,0,0-.651-2.509,2.083,2.083,0,0,0-1.873-1.325,1.59,1.59,0,0,0-1.407.867,2.591,2.591,0,0,0-.325,1.3,5.339,5.339,0,0,0,.6,2.373q.492.952.756,1.416a2.156,2.156,0,0,1-1.328.348q-.946,0-1.381-1.888-.141-.63-.642-.621-.546.009-.668.661a11.521,11.521,0,0,1-.888,2.585,5.673,5.673,0,0,1-1.4,2.087.659.659,0,0,0-.29.544.723.723,0,0,0,.2.5.635.635,0,0,0,.484.22.662.662,0,0,0,.413-.15,9.352,9.352,0,0,0,2.234-3.708,2.538,2.538,0,0,0,1.732,1.236v.018c.054,0,.1-.007.156-.01.024,0,.048,0,.072,0v-.008a4.123,4.123,0,0,0,1.442-.312c.539-.307.894-.525,1.064-.649q.7.357.994.509a2.411,2.411,0,0,0,1.081.255v.015c.034,0,.065-.011.1-.015.061,0,.119,0,.183,0v-.029q.924-.244,1.407-1.785a3.989,3.989,0,0,0,.651,1.023,1.738,1.738,0,0,0,1.46.482q.844-.077,1.169-1.439a8.248,8.248,0,0,0,.158-2.368A4.734,4.734,0,0,0,392.161,883.692Zm-6.938,3.877a4.878,4.878,0,0,1-.7-.992,3.68,3.68,0,0,1-.572-1.747q0-.941.449-.957.255-.009.686.747a3.642,3.642,0,0,1,.5,1.817A1.742,1.742,0,0,1,385.224,887.57Zm5.927.573q-.519.036-.9-1.091a6.044,6.044,0,0,1-.325-1.931,1,1,0,0,1,.105-.578.9.9,0,0,1,.563-.345q.422-.028.686.815a6,6,0,0,1,.229,1.716Q391.511,888.119,391.15,888.143Z" transform="translate(-354.466 -872.982)" fill="#fff"/>
      <path id="Path_40" data-name="Path 40" d="M456.831,881.274v-.659q-.036-.357-.361-.331c-.105.008-.158.174-.158.5a7.44,7.44,0,0,0,.061.8,7.656,7.656,0,0,1,.062.8q0,.185-.053.189-.105.009-.18-1.185t-.25-1.181a.335.335,0,0,0-.343.352,22.458,22.458,0,0,0,.308,4.012,48.544,48.544,0,0,0,.985,5.249,16.767,16.767,0,0,0,.51,1.778q.317.747.879.7.334-.029.334-.433a1.772,1.772,0,0,0-.044-.366A83.556,83.556,0,0,1,456.831,881.274Z" transform="translate(-416.779 -875.882)" fill="#fff"/>
      <path id="Path_41" data-name="Path 41" d="M504.592,917.037a.76.76,0,0,0-.594.374,1.18,1.18,0,0,0-.18.718.918.918,0,0,0,.2.542.546.546,0,0,0,.492.248.914.914,0,0,0,.545-.356.942.942,0,0,0,.29-.576,1.155,1.155,0,0,0-.185-.666A.573.573,0,0,0,504.592,917.037Z" transform="translate(-455.369 -905.365)" fill="#fff"/>
      <path id="Path_42" data-name="Path 42" d="M488.1,883.929q-.246.026-.739.132c-.328.07-.575.114-.739.132a5.6,5.6,0,0,1-2.453-.333,3.691,3.691,0,0,1-1.785-1.28q-.642-.947-.941-1.42a1.258,1.258,0,0,0-.985-.7,5.76,5.76,0,0,0,.827,1.987,1.03,1.03,0,0,1-.677-.656,2.759,2.759,0,0,0-.6-1.1,3.137,3.137,0,0,0-.088.606,3.559,3.559,0,0,0,1.688,2.609,9.709,9.709,0,0,0,3.157,1.644q-1.706,1.672-1.75,1.708a4.506,4.506,0,0,0-1.53,3,1.628,1.628,0,0,0,.844,1.526,3.049,3.049,0,0,0,1.838.3,5.041,5.041,0,0,0,2.383-.811,3.688,3.688,0,0,0,1.09-1.163,1.7,1.7,0,0,0,.29-.62c0-.135-.024-.2-.07-.195a3.656,3.656,0,0,0-.457.383,3.747,3.747,0,0,1-.554.446,1.751,1.751,0,0,1,.4-.6.863.863,0,0,0,.2-.532,6.881,6.881,0,0,0-1.363.866,4.075,4.075,0,0,1-1.917.832,1.754,1.754,0,0,1-.756-.125c-.346-.117-.519-.267-.519-.449q0-1.293,2.084-3a6.673,6.673,0,0,1,3.06-1.7.99.99,0,0,0,.976-.9,3.8,3.8,0,0,0-.413.08,1.025,1.025,0,0,1-.273.03.793.793,0,0,1-.29-.153q.65-.246.976-.352A1.334,1.334,0,0,0,488.1,883.929Z" transform="translate(-436.247 -876.098)" fill="#fff"/>
      <path id="Path_43" data-name="Path 43" d="M539.665,878.117q-.247-.02-.739-.042t-.739-.041a3.683,3.683,0,0,1-1.671-.5,4.245,4.245,0,0,1-1.46-1.4q-.247-.457-.492-.924a1.021,1.021,0,0,0-.809-.538,4.861,4.861,0,0,1,.07.634,1.463,1.463,0,0,0,.343.684q-.7-.083-.7-1.006a1.368,1.368,0,0,1,.018-.23q-1.6,1.192-1.6,2.081a.523.523,0,0,0,.211.43.633.633,0,0,0,.475.137,1.911,1.911,0,0,0,1.029-.542,4.68,4.68,0,0,0,1.152,1.32,11.406,11.406,0,0,0,1.618,1.053,15.5,15.5,0,0,1-2.99,2.8,2.626,2.626,0,0,1-1.187.506l-.088.01h0l-.721.078-.809.089-.809.089-.677.075h0q-1.02.147-2.04-2.976a23.868,23.868,0,0,1-1.082-4.6q-.088-1.441-.105-2.169-.071-.907-.879-.818a.635.635,0,0,0-.348.223.572.572,0,0,0-.2.355q0,.414.413,3.015a38.243,38.243,0,0,0,1.117,5.172,6.751,6.751,0,0,0,1.249,2.334,2.2,2.2,0,0,0,1.741.953v.008l.809-.089.809-.089.809-.088.809-.088a4.807,4.807,0,0,0,2.77-1.519q1.214-1.236,1.8-1.867a3.718,3.718,0,0,1,1.767-.821l1.275-.239q.509-.189.51-.981Q540.316,878.178,539.665,878.117Z" transform="translate(-471.871 -869.577)" fill="#fff"/>
      <path id="Path_44" data-name="Path 44" d="M584.269,923.451a2.1,2.1,0,0,0-.053.445,1.132,1.132,0,0,0,.053.355.563.563,0,0,1-.29-.568,1.812,1.812,0,0,1,.018-.239.856.856,0,0,0-.418.3.743.743,0,0,0-.189.464q0,.994.774.914a.785.785,0,0,0,.791-.872.931.931,0,0,0-.176-.571A.49.49,0,0,0,584.269,923.451Z" transform="translate(-519.052 -910.495)" fill="#fff"/>
      <path id="Path_45" data-name="Path 45" d="M613.981,861.261l-.273-1.65q-.158-1.017-.343-1-.123.01-.264.381a2.513,2.513,0,0,1,.176.848,4.574,4.574,0,0,1,.035.472q0,.211-.053.215a4.475,4.475,0,0,1-.149-.634q-.132-.636-.264-.625a.113.113,0,0,0-.07.041,1,1,0,0,0-.325.695,4.294,4.294,0,0,0,.106.783q.633,3.009.721,3.451a22.415,22.415,0,0,1,.519,4.066,3.515,3.515,0,0,1-.193,1.2c-.172.466-.42.727-.741.79-.21-.021-.514-.346-.912-.982a5.488,5.488,0,0,1-.7-2.024q-.246-1.553-.36-2.334-.106-.615-.484-.582a.9.9,0,0,0-.51.274,1.013,1.013,0,0,0-.36,1.026q.545,2.166.668,2.789a3.676,3.676,0,0,1-.4,1.548,4.439,4.439,0,0,1-.651.9,1.4,1.4,0,0,0-.36.517.764.764,0,0,0,.237.523.6.6,0,0,0,.483.255,1.11,1.11,0,0,0,.888-.721,6.111,6.111,0,0,1,.686-1.229,1.917,1.917,0,0,0,.642,1.08,1.6,1.6,0,0,0,1.046.437v.014l.111-.01h.012l.132-.011v-.005a1.415,1.415,0,0,0,.264-.051,2.408,2.408,0,0,0,.774-.526,3.421,3.421,0,0,0,1.011-2.493,20.613,20.613,0,0,0-.378-3.982Q614.375,862.8,613.981,861.261Z" transform="translate(-539.381 -858.609)" fill="#fff"/>
      <path id="Path_46" data-name="Path 46" d="M648.224,862.7v-.659q-.036-.358-.36-.338-.158.01-.158.493a7.566,7.566,0,0,0,.062.8,7.732,7.732,0,0,1,.061.8c0,.123-.017.186-.053.188q-.106.007-.181-1.189t-.25-1.184a.33.33,0,0,0-.343.348,22.531,22.531,0,0,0,.308,4.016,49.228,49.228,0,0,0,.985,5.267,17.245,17.245,0,0,0,.51,1.79q.316.755.879.724.334-.018.334-.422a1.838,1.838,0,0,0-.044-.367A85,85,0,0,1,648.224,862.7Z" transform="translate(-569.948 -861.009)" fill="#fff"/>
      <path id="Path_47" data-name="Path 47" d="M733.748,862.442c0,.153.161.381.483.688q.317.013.783-.523a1.524,1.524,0,0,0,.466-.861q0-.14-.255-.321a1.388,1.388,0,0,0-.378-.2,5.168,5.168,0,0,1,.448-.48q.343-.334.343-.5a.186.186,0,0,0-.194-.212.514.514,0,0,0-.273.136,2.043,2.043,0,0,1-.325.213q0-.123.308-.39c.164-.144.246-.254.246-.331s-.059-.126-.176-.132a.48.48,0,0,0-.343.115c-.457.4-.7.62-.739.653a1,1,0,0,0-.4.653.427.427,0,0,0,.141.313c.205.19.364.335.475.433-.134.1-.261.2-.378.292A.628.628,0,0,0,733.748,862.442Z" transform="translate(-639.381 -859.343)" fill="#fff"/>
      <path id="Path_48" data-name="Path 48" d="M681.807,866.977c-.141-.007-.194.064-.158.212l.15.623a1.512,1.512,0,0,1,.062.39,1,1,0,0,1-.009.131,4.08,4.08,0,0,0-.563-1.162.351.351,0,0,0-.211-.1q-.238-.01-.237.253a.5.5,0,0,0,.018.115q1.055,3.863,1.064,3.972c.012.141.018.273.018.4,0,.95-.384,1.4-1.152,1.37h0l-.721-.029-.809-.027-.809-.023-.677-.015h0a2.015,2.015,0,0,1-1.1-.519,5.915,5.915,0,0,1-1.152-1.469,6.44,6.44,0,0,1-1.011-2.559,1.131,1.131,0,0,0,.2-.027,1.1,1.1,0,0,1,.193-.027.873.873,0,0,0,.976-.788,3.47,3.47,0,0,0-.413.033,1.018,1.018,0,0,1-.272,0,.8.8,0,0,1-.29-.185c.433-.117.759-.2.976-.243a1.456,1.456,0,0,0-.923-.311,7.208,7.208,0,0,0-.734.055c-.325.037-.573.057-.743.058a6.034,6.034,0,0,1-2.444-.547,4.138,4.138,0,0,1-1.785-1.406q-.642-.988-.941-1.477a1.362,1.362,0,0,0-.985-.749,4.782,4.782,0,0,0,.827,2.031,1.113,1.113,0,0,1-.686-.692,2.994,2.994,0,0,0-.589-1.125,1.476,1.476,0,0,1-.048.3,1.4,1.4,0,0,0-.049.305,3.8,3.8,0,0,0,1.7,2.7,11.206,11.206,0,0,0,3.148,1.865c-1.138,1.022-1.718,1.553-1.741,1.576a4.187,4.187,0,0,0-1.53,2.9,1.745,1.745,0,0,0,.844,1.577,3.243,3.243,0,0,0,1.838.428,4.561,4.561,0,0,0,2.9-1,.794.794,0,0,0,.194-.617q0-.677-.449-.674a.8.8,0,0,0-.255.055c-.457.257-.762.429-.915.513a3.3,3.3,0,0,1-1.477.338,1.974,1.974,0,0,1-.774-.181q-.528-.213-.528-.485a3.179,3.179,0,0,1,1.231-2.111,9.548,9.548,0,0,1,2.427-1.661,10.988,10.988,0,0,0,1.029,2.675c.972,1.861,2.045,2.83,3.218,2.92v.007l.809.018.809.023.809.028q.4.015.809.033v0a1.98,1.98,0,0,0,1.8-.9,3.8,3.8,0,0,0,.536-2.139,9.262,9.262,0,0,0-1.24-4.5C681.927,867.027,681.872,866.98,681.807,866.977Z" transform="translate(-585.788 -862.062)" fill="#fff"/>
      <path id="Path_49" data-name="Path 49" d="M753.748,873.127a1.917,1.917,0,0,0-.044-.373,91.255,91.255,0,0,1-1.75-10.506q0-.329,0-.659a.371.371,0,0,0-.361-.387q-.158-.012-.158.472a7.747,7.747,0,0,0,.062.8,8,8,0,0,1,.061.8c0,.123-.017.183-.053.181q-.106-.008-.181-1.213t-.25-1.218a.283.283,0,0,0-.343.3,23.136,23.136,0,0,0,.308,4.057,52.96,52.96,0,0,0,.985,5.4q.377,1.542.51,1.86.317.8.879.849Q753.749,873.531,753.748,873.127Z" transform="translate(-652.963 -860.547)" fill="#fff"/>
      <path id="Path_50" data-name="Path 50" d="M775.777,896.251a15.128,15.128,0,0,0-.914-3.51,4.376,4.376,0,0,0-.686-1.415,1.124,1.124,0,0,0-.624.088c-.258.108-.387.246-.387.41q.721,1.755.994,2.682a15.617,15.617,0,0,1,.571,2.244c0,.264-.094.376-.281.338q-.519-.106-1.046-1.306a9.441,9.441,0,0,1-.563-1.654q-.422-1.828-.536-2.191-.325-.99-.7-1.056a.666.666,0,0,0-.483.155q-.29.215-.237.427.536,1.988.738,2.692a12.445,12.445,0,0,1,.4,1.924q0,.475-.308.421-.642-.111-1.328-2.349-.457-1.611-.659-2.415-.334-1.212-.73-1.269a.516.516,0,0,0-.492.22.872.872,0,0,0-.211.56,6.6,6.6,0,0,0,.334,1.273,5.754,5.754,0,0,1,.334,1.591q0,.906-.018,1.026a1.343,1.343,0,0,1-.5.958.35.35,0,0,1-.188.035c-.606-.132-1.051-.822-1.333-2.09q-.141-.65-.642-.71c-.364-.043-.586.15-.668.574a10.4,10.4,0,0,1-.888,2.481,5.025,5.025,0,0,1-1.4,1.949.6.6,0,0,0-.29.519.786.786,0,0,0,.2.519.706.706,0,0,0,.484.264.618.618,0,0,0,.413-.11,8.158,8.158,0,0,0,2.234-3.443,3.176,3.176,0,0,0,1.732,1.5v.018c.067.009.129.016.185.022.015,0,.029.007.044.01v-.006a1.071,1.071,0,0,0,.308,0,5.061,5.061,0,0,0,.545-.264,1.015,1.015,0,0,0,.466-.687q.114-.545.158-.82a5.884,5.884,0,0,0,.774,1.344,2.107,2.107,0,0,0,1.134.911q.615.107,1.337-.7a2.979,2.979,0,0,0,.756.8,2.389,2.389,0,0,0,.932.478c.744.155,1.117-.344,1.117-1.511A7.179,7.179,0,0,0,775.777,896.251Z" transform="translate(-662.813 -884.099)" fill="#fff"/>
      <path id="Path_51" data-name="Path 51" d="M795.633,874.766c.194.054.642-.291,1.345-1.022.551.691.829,1.041.835,1.042a1.129,1.129,0,0,0,.536.44.329.329,0,0,0,.29-.052q-.132-.165-.343-.424a1.721,1.721,0,0,1-.431-.8,4.077,4.077,0,0,0,.515.625q.435.471.453.414c.058,0,.088-.08.088-.238a1.283,1.283,0,0,0-.4-.716,7.526,7.526,0,0,1-.5-.6q-.3-.661-.519-1.112a.632.632,0,0,0-.475-.372c-.223-.037-.859.674-1.908,2.158A.625.625,0,0,0,795.633,874.766Z" transform="translate(-688.499 -869.285)" fill="#fff"/>
    </g>
    <g id="Group_17" data-name="Group 17" transform="translate(96.425 7.912)">
      <path id="Path_52" data-name="Path 52" d="M660.569,475.579a3.537,3.537,0,0,0-1.983-.617c-1.161,0-3.336.476-4.852,3.648a10.519,10.519,0,0,0-1.2,4.7,8.3,8.3,0,0,0,2.428,5.97c5.119,5.269,7.714,12.376,7.714,21.124a9.86,9.86,0,0,1-1.637,5.1,5.736,5.736,0,0,1-5.2,3.109c-2.793,0-4.468-4.768-5.38-8.762-1.106-4.96-4.59-5.5-6.036-5.5-1.542,0-5.231.552-6.2,5.659a61.6,61.6,0,0,1-4.762,13.783,41.246,41.246,0,0,1-5.294,8.964l-.073.093a3.934,3.934,0,0,1-2.728.914,2.858,2.858,0,0,1-.835-.108l-.094-.027c-6.519-1.7-15.806-3.414-21.859-3.414-.138,0-.273,0-.405,0-7.962.086-13.144,2.159-15.4,6.161-2.872,5.087.125,11.253,1.561,13.69a2.979,2.979,0,0,0,2.433,1.417l.1,0a2.986,2.986,0,0,0,2.371-1.182c1.476-1.871,5.461-5.012,15.57-5.012a69.221,69.221,0,0,1,10.668.929,23.637,23.637,0,0,0,3.45.253c6.335,0,12.329-2.559,15.666-6.7l.062-.083a73.773,73.773,0,0,0,6.939-12.7,15.491,15.491,0,0,0,7.26,4.519,10.562,10.562,0,0,0,2.786.383c.11,0,.221,0,.342-.005l1.379-.052a16.035,16.035,0,0,0,10.025-4.226,15.225,15.225,0,0,0,3.227-4.26,32.378,32.378,0,0,0,3.922-15.344,49.45,49.45,0,0,0-3.608-18.323C668.288,483.039,664.8,478.29,660.569,475.579Zm-49.845,66.372-1.744.025c-.721-.016-1.558.058-2.455.087-.9.062-1.849.12-2.8.233l-1.416.179c-.463.092-.926.129-1.366.228-.885.161-1.71.327-2.413.518s-1.29.345-1.694.5l-.639.23a6.354,6.354,0,0,1,.6-.427,13.232,13.232,0,0,1,1.641-.881,18.3,18.3,0,0,1,2.394-.857,19.571,19.571,0,0,1,2.8-.539,22.724,22.724,0,0,1,2.839-.11,22.355,22.355,0,0,1,2.487.248,15.241,15.241,0,0,1,1.758.364c.424.1.665.18.665.18S611.146,541.944,610.724,541.951Zm61.108-36.725c.111.9.141,1.8.214,2.691,0,.893,0,1.771-.043,2.619-.088.847-.144,1.668-.3,2.434-.172.763-.3,1.487-.481,2.141-.212.647-.428,1.232-.619,1.746a10.8,10.8,0,0,1-.623,1.279c-.37.695-.592,1.079-.592,1.079l.4-1.162a10.456,10.456,0,0,0,.439-1.324c.116-.529.247-1.12.413-1.756.12-.648.189-1.363.3-2.107.085-.748.064-1.55.129-2.367.017-.822-.045-1.673-.046-2.536-.083-.862-.125-1.74-.243-2.612s-.2-1.75-.38-2.6c-.151-.855-.293-1.7-.483-2.506-.34-1.622-.715-3.129-1.075-4.412-.382-1.275-.667-2.355-.923-3.091l-.38-1.169s.228.386.569,1.093.817,1.723,1.3,2.982c.453,1.266,1,2.744,1.415,4.382.22.815.424,1.664.583,2.539C671.6,503.433,671.694,504.333,671.832,505.226Z" transform="translate(-585.574 -436.398)" fill="#be1f25"/>
      <path id="Path_53" data-name="Path 53" d="M903.5,284.245a6.424,6.424,0,0,0-4.987-2.384,4.931,4.931,0,0,0-4.59,3.076c-4.818,10.381-10.046,17.258-15.541,20.44a33.909,33.909,0,0,1-15.033,4.27c-3.613.259-5.77,2.316-5.77,5.5a5.4,5.4,0,0,0,1.631,4.142,5.972,5.972,0,0,0,4.21,1.44c.254,0,.517-.01.781-.03a85.413,85.413,0,0,0,10.138-1.165,41.019,41.019,0,0,0,9.62-3.283c8.054-3.8,15.074-11.98,20.876-24.334a6.732,6.732,0,0,0,.609-2.738A7.377,7.377,0,0,0,903.5,284.245Zm-9.448,19.529c-.363.521-.885,1.269-1.58,2.112-.71.828-1.531,1.81-2.519,2.759-.485.483-1,.968-1.554,1.431-.534.484-1.13.913-1.7,1.37-.587.439-1.215.825-1.811,1.232-.628.36-1.248.713-1.863,1.022-.632.279-1.234.569-1.833.771-.607.185-1.17.384-1.7.522-.541.111-1.04.194-1.479.266a8.729,8.729,0,0,1-1.151.075c-.639.019-1,.017-1,.017l.981-.183a8.537,8.537,0,0,0,1.11-.223c.419-.131.888-.277,1.4-.415.505-.176,1.037-.415,1.6-.638.562-.241,1.118-.578,1.72-.861.586-.319,1.161-.7,1.768-1.052.574-.405,1.176-.787,1.743-1.221s1.152-.846,1.68-1.313c.542-.45,1.079-.889,1.572-1.348,1.006-.892,1.918-1.761,2.677-2.531s1.391-1.416,1.808-1.893l.671-.737S894.415,303.25,894.054,303.774Z" transform="translate(-803.258 -281.861)" fill="#be1f25"/>
    </g>
    <g id="Group_18" data-name="Group 18" transform="translate(0 54.571)">
      <path id="Path_54" data-name="Path 54" d="M244.057,527.682c-2.412-7.272-5.966-10.959-10.565-10.959-3.519,0-5.537,2.223-5.537,6.1,0,2.228.94,5.377,2.874,9.627,2.109,4.635,2.551,7.122,2.551,8.392a3.334,3.334,0,0,1-.732,1.963c-.472.651-.847.739-1.152.739-2.181,0-3.624-3.214-4.454-5.935l-3.16-13.457-.02-.077c-.6-2.122-2.418-8.581-7.313-8.581a5.531,5.531,0,0,0-4.563,2.461,7.353,7.353,0,0,0-1.537,4.562A48.582,48.582,0,0,0,212.3,533.4a46.347,46.347,0,0,1,1.736,10,2,2,0,0,1-.778,1.572,2.715,2.715,0,0,1-1.874.773c-2.219,0-3.644-3.155-4.452-5.827-1-4.371-2.048-8.868-3.112-13.364l-.021-.08c-1.606-5.622-4.2-8.473-7.72-8.473a5.667,5.667,0,0,0-3.9,1.745,5.322,5.322,0,0,0-1.9,3.9,45.757,45.757,0,0,0,.82,7.165,43.468,43.468,0,0,1,.767,6.605c0,2.129,0,8.609-15.442,8.609-.473,0-.955-.006-1.436-.018l-4.307-.133c-5.419-.316-8.553-1.367-10.142-3.4-.165-.3-.786-1.73-2.551-8.487-1.1-4.158-4.112-6.355-8.7-6.355-3.68,0-7.788,1.286-12.212,3.824-5.251,3.028-7.913,6.481-7.913,10.262,0,2.174,1.072,5.445,3.277,10,2.707,5.6,2.917,7.161,2.917,7.508,0,2.464-.75,5.975-7.265,8.017-.63.21-3.459.8-15.342,2.433-2.473.344-10,1.393-10,6.39,0,2.68,1.185,7.176,9.121,7.176,9.158,0,16.853-1.2,22.876-3.555,9.112-3.593,13.732-9.633,13.732-17.953,0-3.692-1.751-9.075-5.351-16.439a10.472,10.472,0,0,1,2.4-2.486,7.537,7.537,0,0,1,2.912-1.51l.22.18c1.069,8.874,1.726,11.1,2.17,12.01,1.852,3.949,5.879,5.951,11.971,5.951h7.166c.335,0,1.069.009,2.666.051h3.272c11.569,0,18.966-2.084,22.456-6.351,2.852,4.183,7.217,6.3,13.017,6.3,6.335,0,10.818-1.658,13.364-4.936a13.059,13.059,0,0,0,9.414,4.117,10.866,10.866,0,0,0,9.607-5.389,19.025,19.025,0,0,0,2.79-10.386A48.2,48.2,0,0,0,244.057,527.682ZM143.432,567.706l.319-.87c.084-.274.138-.532.2-.764a8.39,8.39,0,0,0,.182-1.1,3.406,3.406,0,0,0,.023-.4,3.482,3.482,0,0,1,.034.4,6.273,6.273,0,0,1-.037,1.129c-.037.241-.063.512-.119.8l-.232.93a10.063,10.063,0,0,1-.909,2.114,14.268,14.268,0,0,1-1.553,2.25,15.493,15.493,0,0,1-2.218,2.094,18.3,18.3,0,0,1-2.7,1.815,10.748,10.748,0,0,1-1.485.76l-1.528.7c-1.036.425-2.115.728-3.153,1.091s-2.115.515-3.126.771c-.51.108-1.006.246-1.5.323l-1.457.192-2.663.35c-.824.1-1.59.1-2.263.137l-1.744.073-1.518.043,1.5-.247,1.72-.259c.662-.111,1.414-.2,2.225-.335l2.607-.519,1.42-.283,1.461-.379c.985-.278,2.026-.492,3.038-.84,1.005-.365,2.054-.673,3.052-1.093l1.482-.661a10.13,10.13,0,0,0,1.437-.715,20.024,20.024,0,0,0,2.631-1.659,18.956,18.956,0,0,0,2.216-1.874,13.626,13.626,0,0,0,1.612-2.037A13.211,13.211,0,0,0,143.432,567.706Zm43.689-12.627c-.716.209-1.742.512-3,.764-1.257.235-2.729.521-4.322.687-1.591.19-3.3.283-5,.341-1.708.025-3.415,0-5.012-.09s-3.081-.263-4.348-.423c-1.271-.129-2.315-.371-3.049-.486-.733-.135-1.149-.226-1.149-.226s.428,0,1.171.022l3.074.1c1.268.066,2.75.052,4.333.085,1.583,0,3.27.01,4.956-.036l2.515-.079c.827-.06,1.646-.064,2.433-.131,1.578-.1,3.052-.206,4.312-.347s2.313-.254,3.045-.378l1.154-.184S187.835,554.858,187.121,555.079Zm18.3-12.68a8.112,8.112,0,0,1-.518-.769c-.184-.306-.414-.646-.608-1.041a23.571,23.571,0,0,1-1.214-2.754c-.174-.52-.391-1.049-.544-1.6s-.336-1.113-.479-1.679a42.32,42.32,0,0,1-1.113-6.318c-.087-.871-.107-1.6-.133-2.113s-.008-.8-.008-.8.306,1.13.736,2.815l.712,2.876c.265,1.049.525,2.171.829,3.28.273,1.118.594,2.219.884,3.256s.61,1.987.887,2.8l.4,1.107a7.918,7.918,0,0,0,.345.843c.2.464.311.741.311.741S205.726,542.813,205.421,542.4Zm20.115-2.948a16.489,16.489,0,0,1-.984-1.928,40.177,40.177,0,0,1-1.95-6.215,62.1,62.1,0,0,1-1.153-6.39c-.115-.879-.16-1.62-.211-2.135s-.047-.815-.047-.815.1.282.248.777.371,1.2.6,2.054c.476,1.7,1.044,3.983,1.588,6.264l.783,3.351.713,2.911.313,1.155.282.879c.2.462.312.747.312.747S225.848,539.882,225.536,539.452Zm18.49,5.675c-.172.763-.3,1.487-.481,2.141-.212.647-.428,1.232-.619,1.746a10.751,10.751,0,0,1-.623,1.279c-.37.7-.592,1.08-.592,1.08l.4-1.163a10.445,10.445,0,0,0,.439-1.324c.116-.529.247-1.12.413-1.756.121-.648.189-1.363.3-2.107.085-.748.064-1.55.129-2.367.017-.822-.045-1.673-.046-2.536-.083-.862-.125-1.74-.243-2.612s-.2-1.75-.38-2.6c-.151-.855-.293-1.7-.483-2.506-.34-1.622-.715-3.129-1.075-4.412-.382-1.275-.667-2.355-.923-3.092l-.379-1.169s.228.386.569,1.093.817,1.723,1.3,2.982c.453,1.266,1,2.744,1.415,4.382.22.815.425,1.664.583,2.538.193.867.288,1.768.426,2.66.111.9.141,1.8.214,2.691,0,.893,0,1.771-.043,2.619C244.233,543.54,244.177,544.361,244.027,545.127Z" transform="translate(-102.752 -515.494)" fill="#fff"/>
    </g>
    <path id="Path_55" data-name="Path 55" d="M358.463,755a5.142,5.142,0,0,1-1.592,3.846,5.446,5.446,0,0,1-3.944,1.543,5.354,5.354,0,0,1-5.39-5.39,5.444,5.444,0,0,1,1.543-3.944,5.137,5.137,0,0,1,3.846-1.593A5.44,5.44,0,0,1,358.463,755Z" transform="translate(-298.651 -648.163)" fill="#fff"/>
  </g>
</svg>
