<svg xmlns="http://www.w3.org/2000/svg" width="214.918" height="10.084" viewBox="0 0 214.918 10.084">
  <path id="Path_523" data-name="Path 523" d="M179.977,400.842c-3.846,0-5.842,1.966-7.445,3.546-1.377,1.357-2.372,2.337-4.5,2.337s-3.119-.98-4.5-2.337c-1.6-1.58-3.6-3.546-7.445-3.546s-5.841,1.966-7.444,3.546c-1.377,1.357-2.372,2.337-4.5,2.337s-3.119-.98-4.5-2.337c-1.6-1.58-3.6-3.546-7.444-3.546s-5.841,1.966-7.444,3.546c-1.377,1.357-2.372,2.337-4.5,2.337s-3.119-.98-4.5-2.337c-1.6-1.58-3.6-3.546-7.445-3.546s-5.841,1.966-7.444,3.546c-1.377,1.357-2.372,2.337-4.5,2.337s-3.119-.98-4.5-2.337c-1.6-1.58-3.6-3.546-7.444-3.546s-5.841,1.966-7.444,3.546c-1.377,1.357-2.372,2.337-4.5,2.337s-3.119-.98-4.5-2.337c-1.6-1.58-3.6-3.546-7.444-3.546s-5.841,1.966-7.444,3.546c-1.377,1.357-2.372,2.337-4.5,2.337s-3.119-.98-4.5-2.337c-1.6-1.58-3.6-3.546-7.444-3.546s-5.841,1.966-7.444,3.546c-1.377,1.357-2.372,2.337-4.5,2.337s-3.119-.98-4.5-2.337c-1.6-1.58-3.6-3.546-7.444-3.546s-5.841,1.966-7.444,3.546C4,405.744,3,406.724.879,406.724s-3.119-.98-4.5-2.337c-1.6-1.58-3.6-3.546-7.444-3.546s-5.841,1.966-7.444,3.546c-1.377,1.357-2.371,2.337-4.5,2.337v4.2c3.846,0,5.841-1.966,7.444-3.546,1.377-1.357,2.372-2.337,4.5-2.337s3.118.98,4.5,2.337c1.6,1.58,3.6,3.546,7.444,3.546s5.841-1.966,7.444-3.546c1.377-1.357,2.372-2.337,4.5-2.337s3.119.98,4.5,2.337c1.6,1.58,3.6,3.546,7.444,3.546S30.6,408.96,32.2,407.38c1.377-1.357,2.372-2.337,4.5-2.337s3.119.98,4.5,2.337c1.6,1.58,3.6,3.546,7.444,3.546s5.841-1.966,7.444-3.546c1.377-1.357,2.372-2.337,4.5-2.337s3.119.98,4.5,2.337c1.6,1.58,3.6,3.546,7.444,3.546s5.841-1.966,7.444-3.546c1.377-1.357,2.372-2.337,4.5-2.337s3.119.98,4.5,2.337c1.6,1.58,3.6,3.546,7.444,3.546s5.841-1.966,7.444-3.546c1.377-1.357,2.372-2.337,4.5-2.337s3.119.98,4.5,2.337c1.6,1.58,3.6,3.546,7.444,3.546s5.841-1.966,7.444-3.546c1.377-1.357,2.372-2.337,4.5-2.337s3.119.98,4.5,2.337c1.6,1.58,3.6,3.546,7.444,3.546S150,408.96,151.6,407.38c1.377-1.357,2.372-2.337,4.5-2.337s3.119.98,4.5,2.337c1.6,1.58,3.6,3.546,7.444,3.546s5.842-1.966,7.445-3.546c1.377-1.357,2.372-2.337,4.5-2.337s3.119.98,4.5,2.337c1.6,1.58,3.6,3.546,7.445,3.546v-4.2c-2.124,0-3.119-.98-4.5-2.337C185.819,402.808,183.823,400.842,179.977,400.842Z" transform="translate(23 -400.842)" fill="#be1f25"/>
</svg>
