<svg xmlns="http://www.w3.org/2000/svg" width="77.364" height="60" viewBox="0 0 77.364 60">
  <g id="Group_4294" data-name="Group 4294" transform="translate(-204.864 -46)">
    <g id="Group_4293" data-name="Group 4293" transform="translate(204.864 46)">
      <g id="Group_4282" data-name="Group 4282" transform="translate(8.784)">
        <path id="Path_3872" data-name="Path 3872" d="M556.475-135.965a2.3,2.3,0,0,0-.5-.731,2.317,2.317,0,0,0-.738-.493,2.323,2.323,0,0,0-.907-.18,3.591,3.591,0,0,0-1.094.167,2.86,2.86,0,0,0-.961.518,2.6,2.6,0,0,0-.676.86,2.576,2.576,0,0,0-.256,1.152,2.325,2.325,0,0,0,.218.977,3.04,3.04,0,0,0,.538.8,2.794,2.794,0,0,0,.79.6,2.2,2.2,0,0,0,1,.244,2.177,2.177,0,0,0,1.125-.318,3.37,3.37,0,0,0,.836-.708,3.559,3.559,0,0,0,.574-.929,2.685,2.685,0,0,0,.225-1.041A2.321,2.321,0,0,0,556.475-135.965Z" transform="translate(-534.637 159.37)" fill="#fff"/>
        <g id="Group_4281" data-name="Group 4281" transform="translate(49.266 21.264)">
          <path id="Path_3873" data-name="Path 3873" d="M670.083-133.986a11.744,11.744,0,0,0-1.544,2.354q.227-.282.474-.612A11.627,11.627,0,0,0,670.083-133.986Z" transform="translate(-666.706 135.716)" fill="none"/>
          <g id="Group_4280" data-name="Group 4280">
            <path id="Path_3874" data-name="Path 3874" d="M665.125-136.02c1.128-1.533,1.819-3.154,1.645-3.79-.017-.063-.058-.087-.154-.061a7.4,7.4,0,0,0-1.383,1.227,17.958,17.958,0,0,0-2.941,5.334A8.373,8.373,0,0,0,665.125-136.02Z" transform="translate(-662.291 139.88)" fill="none"/>
          </g>
        </g>
        <path id="Path_3875" data-name="Path 3875" d="M494.4-204.119c1.9-.458,2.849-1.89,3.679-3.456.448-.846.89-1.7,1.391-2.515a4.5,4.5,0,0,1,2.665-2.016,5.846,5.846,0,0,1,3.735.146c.058.021.113.052.175.08a16.258,16.258,0,0,0-1.741.019,5.194,5.194,0,0,0-3.766,2.341c-.7,1-1.384,2.007-2.1,2.993a11.376,11.376,0,0,1-.881.967l.076.1a6.875,6.875,0,0,0,1.018-.789c1.069-1.2,2.044-2.479,3.164-3.623a5.2,5.2,0,0,1,3.976-1.718,3.82,3.82,0,0,1,2.988,1.635c-.256-.1-.423-.153-.586-.221a4.27,4.27,0,0,0-4.185.57,21.677,21.677,0,0,0-3.317,3.129,8.858,8.858,0,0,1-3.176,2.3A5.565,5.565,0,0,1,494.4-204.119Z" transform="translate(-494.404 212.344)" fill="#ffc300"/>
      </g>
      <g id="Group_4284" data-name="Group 4284" transform="translate(6.935 48.782)">
        <g id="Group_4283" data-name="Group 4283" transform="translate(0 0)">
          <path id="Path_3876" data-name="Path 3876" d="M489.732-22.038a1.163,1.163,0,0,1-.674-.18,1.52,1.52,0,0,1-.465-.489,2.914,2.914,0,0,1-.294-.665,4.3,4.3,0,0,1-.153-.718,5.226,5.226,0,0,1-.044-.638,4.805,4.805,0,0,1,.055-.693,4.444,4.444,0,0,1,.179-.758,2.884,2.884,0,0,1,.334-.695,1.749,1.749,0,0,1,.515-.512,1.36,1.36,0,0,1,.729-.2,1.263,1.263,0,0,1,.717.179,1.192,1.192,0,0,1,.436.493,1.319,1.319,0,0,1,.153.5c0,.129.005.2.006.211a2.175,2.175,0,0,1-.116.7,2.133,2.133,0,0,1-.38.676.2.2,0,0,1-.112.072l-.06,0a.236.236,0,0,1-.137-.043.182.182,0,0,1-.076-.105c0-.031,0-.05,0-.054a.217.217,0,0,1,.049-.137,1.433,1.433,0,0,0,.234-.4,2.1,2.1,0,0,0,.132-.448,2.319,2.319,0,0,0,.035-.366.867.867,0,0,0-.144-.531.384.384,0,0,0-.327-.137.747.747,0,0,0-.5.193,1.605,1.605,0,0,0-.359.48,3.274,3.274,0,0,0-.238.624,4.945,4.945,0,0,0-.129.639,4.241,4.241,0,0,0-.038.509,5.034,5.034,0,0,0,.111,1.189,1.31,1.31,0,0,0,.3.615.559.559,0,0,0,.4.178.625.625,0,0,0,.357-.133.976.976,0,0,0,.3-.388,1.653,1.653,0,0,0,.136-.642.206.206,0,0,1,.067-.148.225.225,0,0,1,.155-.063.222.222,0,0,1,.157.061.2.2,0,0,1,.061.147,1.987,1.987,0,0,1-.341,1.122A1.211,1.211,0,0,1,489.732-22.038Z" transform="translate(-488.103 33.023)" fill="#fff"/>
          <path id="Path_3877" data-name="Path 3877" d="M500.805-20.2a.435.435,0,0,1-.336-.15.737.737,0,0,1-.149-.519q0-1.545-.051-2.053a8.21,8.21,0,0,0-.153-.967.579.579,0,0,1-.011-.108.336.336,0,0,1,.077-.222.376.376,0,0,1,.288-.135.456.456,0,0,1,.32.133.856.856,0,0,1,.225.467,5,5,0,0,1,.085.762q.335-1.4.82-1.556a.841.841,0,0,1,.218-.041.586.586,0,0,1,.232.035.192.192,0,0,1,.141.2.229.229,0,0,1-.065.16.229.229,0,0,1-.164.074.55.55,0,0,1-.1-.006.641.641,0,0,0-.121-.005q-.32.014-.693,1.943a12.326,12.326,0,0,0-.155,1.623Q501.192-20.219,500.805-20.2Z" transform="translate(-496.583 30.905)" fill="#fff"/>
          <path id="Path_3878" data-name="Path 3878" d="M510.765-20.046a.122.122,0,0,1-.032,0,.691.691,0,0,1-.459-.222,1.5,1.5,0,0,1-.308-.5,2.443,2.443,0,0,1-.151-.613,2.917,2.917,0,0,1-.2.5,1.339,1.339,0,0,1-.292.385.628.628,0,0,1-.4.165.614.614,0,0,1-.487-.183,1.471,1.471,0,0,1-.324-.524,3.475,3.475,0,0,1-.185-.723,4.972,4.972,0,0,1-.063-.631c0-.156,0-.257,0-.3q0-1.153.3-1.345a.475.475,0,0,1,.246-.082.427.427,0,0,1,.347.131.45.45,0,0,1,.135.32.658.658,0,0,1-.024.169,4.114,4.114,0,0,0-.074.972,5.139,5.139,0,0,0,.126,1.363c.047.147.109.218.187.214q.386-.021.658-2.664.038-.373.053-.562l.007-.07a.349.349,0,0,1,.139-.251.5.5,0,0,1,.269-.095.461.461,0,0,1,.343.127.537.537,0,0,1,.156.425q0,.308-.021.665c-.016.334-.024.673-.025,1.015q0,.3.011.611a4.311,4.311,0,0,0,.268,1.45.178.178,0,0,1,.014.065.187.187,0,0,1-.049.119A.216.216,0,0,1,510.765-20.046Z" transform="translate(-502.064 30.917)" fill="#fff"/>
          <path id="Path_3879" data-name="Path 3879" d="M522.3-20.371a.17.17,0,0,1-.049,0,1.14,1.14,0,0,1-.859-.5,1.812,1.812,0,0,1-.225-.922,8.061,8.061,0,0,1,.091-1.143,6.913,6.913,0,0,0,.088-.922,1.45,1.45,0,0,0-.011-.207.154.154,0,0,0-.032-.087.058.058,0,0,0-.046-.017q-.316.025-.746,2.429-.13.768-.151.874a.347.347,0,0,1-.157.22.577.577,0,0,1-.276.092.457.457,0,0,1-.241-.048.363.363,0,0,1-.171-.171.587.587,0,0,1-.056-.262q.032-.515.032-.9a8.77,8.77,0,0,0-.215-2.2.528.528,0,0,1-.018-.131.325.325,0,0,1,.063-.2.377.377,0,0,1,.285-.149.461.461,0,0,1,.327.122.873.873,0,0,1,.25.459,6,6,0,0,1,.158.928,5.131,5.131,0,0,1,.273-.824,2.169,2.169,0,0,1,.389-.622.793.793,0,0,1,.531-.267.554.554,0,0,1,.566.369,1.638,1.638,0,0,1,.155.724,6.487,6.487,0,0,1-.067.767,9.17,9.17,0,0,0-.106,1.19,2.769,2.769,0,0,0,.042.5.709.709,0,0,0,.288.5.183.183,0,0,1,.091.163.262.262,0,0,1-.017.089A.217.217,0,0,1,522.3-20.371Z" transform="translate(-510.121 31.067)" fill="#fff"/>
          <path id="Path_3880" data-name="Path 3880" d="M532.521-22.437a.955.955,0,0,1-.932-.46,2.876,2.876,0,0,1-.429-1.663,3.629,3.629,0,0,1,.183-1.138,1.873,1.873,0,0,1,.672-.99,1.18,1.18,0,0,1,.574-.2.754.754,0,0,1,.76.395,1.451,1.451,0,0,1,.207.78c0,.036,0,.072,0,.109a.215.215,0,0,1-.065.148.233.233,0,0,1-.143.068.177.177,0,0,1-.15-.048.186.186,0,0,1-.058-.138V-25.7a.565.565,0,0,0-.148-.468.226.226,0,0,0-.155-.045q-.254.024-.5.536a3,3,0,0,0-.257,1.32,3.265,3.265,0,0,0,.088.844.91.91,0,0,0,.236.446.413.413,0,0,0,.32.113.5.5,0,0,0,.315-.194,1.164,1.164,0,0,0,.234-.445,1.953,1.953,0,0,0,.077-.549q0-.111,0-.223a.22.22,0,0,1,.046-.137.218.218,0,0,1,.151-.088.208.208,0,0,1,.146.036.184.184,0,0,1,.072.134c.007.076.01.153.01.229a2.28,2.28,0,0,1-.222,1.028A1.215,1.215,0,0,1,532.521-22.437Z" transform="translate(-518.524 32.531)" fill="#fff"/>
          <path id="Path_3881" data-name="Path 3881" d="M544.467-25.745a.836.836,0,0,1-.6-.167.853.853,0,0,1-.144-.138,2.116,2.116,0,0,1-.377-1.377q0-.664.046-1.263.038-.493.039-.661a1.307,1.307,0,0,0-.021-.251c-.014-.074-.05-.108-.106-.1q-.218.024-.4.795a12.426,12.426,0,0,0-.25,1.511q-.081.725-.1,1.048a.363.363,0,0,1-.12.264.453.453,0,0,1-.264.119.443.443,0,0,1-.325-.1.59.59,0,0,1-.192-.415,16.317,16.317,0,0,1-.141-1.973q0-1.572.151-3.135a.413.413,0,0,1,.136-.281.461.461,0,0,1,.266-.12.471.471,0,0,1,.246.04.446.446,0,0,1,.239.446l-.007.053q-.13,1.771-.137,3.04.38-1.923,1.1-2,.816-.09.816,1.142c0,.279-.015.622-.046,1.029q-.046.564-.045.969,0,.891.373,1.142a.173.173,0,0,1,.081.148.215.215,0,0,1-.024.094A.245.245,0,0,1,544.467-25.745Z" transform="translate(-525.844 36.139)" fill="#fff"/>
          <path id="Path_3882" data-name="Path 3882" d="M554.746-23.256a1.086,1.086,0,0,1-.713-.116.862.862,0,0,1-.373-.445,1.645,1.645,0,0,1-.1-.566q0-.262.232-.289c.148-.017.222.034.222.156a.715.715,0,0,0,.187.558.415.415,0,0,0,.348.085q.918-.11.918-1.97,0-.234-.032-.985a4.154,4.154,0,0,1-.257.718,1.89,1.89,0,0,1-.373.543.859.859,0,0,1-.514.25.87.87,0,0,1-.94-.662,4.119,4.119,0,0,1-.239-1.527,6.894,6.894,0,0,1,.053-.841,4.064,4.064,0,0,1,.116-.607.422.422,0,0,1,.158-.237.524.524,0,0,1,.253-.1.445.445,0,0,1,.267.051.346.346,0,0,1,.171.179.593.593,0,0,1,.044.21.882.882,0,0,1-.028.208c-.019.076-.039.195-.062.358s-.042.351-.06.563-.026.427-.026.646a4.116,4.116,0,0,0,.04.605,1.265,1.265,0,0,0,.134.44.251.251,0,0,0,.262.144q.281-.033.5-.78a9.045,9.045,0,0,0,.285-1.456,10.289,10.289,0,0,0,.088-1.031.448.448,0,0,1,.116-.323.44.44,0,0,1,.271-.14.42.42,0,0,1,.348.123.7.7,0,0,1,.176.494c.012.208.033.47.067.785q.112,1.107.112,1.911a7.791,7.791,0,0,1-.074,1.127,2.487,2.487,0,0,1-.764,1.6A1.536,1.536,0,0,1,554.746-23.256Z" transform="translate(-534.036 34.462)" fill="#fff"/>
          <path id="Path_3883" data-name="Path 3883" d="M573.854-29.439a1.093,1.093,0,0,1-.674-.1,1.272,1.272,0,0,1-.464-.432,2.529,2.529,0,0,1-.294-.627,3.958,3.958,0,0,1-.153-.7,4.992,4.992,0,0,1-.044-.632,5.014,5.014,0,0,1,.055-.7,4.833,4.833,0,0,1,.179-.781,3.314,3.314,0,0,1,.334-.737,2.1,2.1,0,0,1,.516-.576,1.5,1.5,0,0,1,.728-.29,1.176,1.176,0,0,1,.718.1,1.016,1.016,0,0,1,.436.445,1.2,1.2,0,0,1,.153.484c0,.129.005.2.005.211a2.3,2.3,0,0,1-.116.711,2.474,2.474,0,0,1-.38.718.228.228,0,0,1-.113.085l-.06.011a.219.219,0,0,1-.137-.027.155.155,0,0,1-.076-.1c0-.031-.005-.049-.005-.053a.241.241,0,0,1,.049-.143,1.653,1.653,0,0,0,.234-.423,2.324,2.324,0,0,0,.132-.463,2.376,2.376,0,0,0,.035-.37.8.8,0,0,0-.144-.515.347.347,0,0,0-.327-.1.843.843,0,0,0-.5.251,1.9,1.9,0,0,0-.359.523,3.649,3.649,0,0,0-.237.653,5.113,5.113,0,0,0-.129.654,4.411,4.411,0,0,0-.039.514,4.872,4.872,0,0,0,.111,1.175,1.13,1.13,0,0,0,.3.579.5.5,0,0,0,.4.13.711.711,0,0,0,.357-.175,1.152,1.152,0,0,0,.3-.423,1.771,1.771,0,0,0,.136-.657.236.236,0,0,1,.067-.156.252.252,0,0,1,.155-.08.2.2,0,0,1,.157.044.177.177,0,0,1,.061.14,2.176,2.176,0,0,1-.341,1.16A1.4,1.4,0,0,1,573.854-29.439Z" transform="translate(-547.539 38.278)" fill="#fff"/>
          <path id="Path_3884" data-name="Path 3884" d="M587.679-31.132a.823.823,0,0,1-.6-.153.8.8,0,0,1-.144-.134,2.075,2.075,0,0,1-.377-1.367q0-.663.046-1.264.039-.494.039-.662a1.318,1.318,0,0,0-.021-.25c-.014-.074-.049-.107-.105-.1q-.219.029-.4.805a12.84,12.84,0,0,0-.25,1.519q-.081.727-.095,1.051a.378.378,0,0,1-.12.268.468.468,0,0,1-.264.126.434.434,0,0,1-.326-.094.568.568,0,0,1-.192-.409,16.2,16.2,0,0,1-.141-1.969q0-1.572.151-3.14a.43.43,0,0,1,.136-.286.479.479,0,0,1,.266-.129.468.468,0,0,1,.246.033.433.433,0,0,1,.239.44l-.007.053q-.131,1.775-.137,3.044.38-1.934,1.1-2.031.816-.111.816,1.122,0,.419-.046,1.03-.046.565-.046.97,0,.891.373,1.134a.17.17,0,0,1,.081.146.225.225,0,0,1-.025.094A.253.253,0,0,1,587.679-31.132Z" transform="translate(-556.376 39.902)" fill="#fff"/>
          <path id="Path_3885" data-name="Path 3885" d="M596.989-32.3a.51.51,0,0,1-.315-.065.573.573,0,0,1-.248-.319,4.947,4.947,0,0,1-.257-1.754q0-.65.06-1.266a.322.322,0,0,1,.134-.233.571.571,0,0,1,.274-.112.534.534,0,0,1,.25.024.34.34,0,0,1,.183.143.478.478,0,0,1,.063.255q-.049.695-.049,1.163,0,.178,0,.356a4.46,4.46,0,0,0,.243,1.414.32.32,0,0,1,.014.092.241.241,0,0,1-.074.171A.465.465,0,0,1,596.989-32.3Zm-.207-4.129a.32.32,0,0,1-.3-.123.571.571,0,0,1-.125-.381.718.718,0,0,1,.125-.417.435.435,0,0,1,.3-.207.319.319,0,0,1,.3.125.574.574,0,0,1,.125.383.714.714,0,0,1-.125.415A.436.436,0,0,1,596.781-36.432Z" transform="translate(-564.457 40.071)" fill="#fff"/>
          <path id="Path_3886" data-name="Path 3886" d="M602.915-31.173a.917.917,0,0,1-.932-.42,2.782,2.782,0,0,1-.429-1.643,3.71,3.71,0,0,1,.183-1.146,1.978,1.978,0,0,1,.672-1.02,1.218,1.218,0,0,1,.573-.224.724.724,0,0,1,.76.367,1.415,1.415,0,0,1,.208.772l0,.109a.218.218,0,0,1-.065.15.241.241,0,0,1-.142.073.173.173,0,0,1-.15-.043.18.18,0,0,1-.058-.136v-.122q0-.36-.148-.462a.219.219,0,0,0-.155-.039c-.169.023-.336.208-.5.556a3.073,3.073,0,0,0-.257,1.331,3.222,3.222,0,0,0,.088.841.861.861,0,0,0,.236.436.4.4,0,0,0,.32.1.523.523,0,0,0,.315-.206,1.207,1.207,0,0,0,.234-.454,1.986,1.986,0,0,0,.077-.552c0-.075,0-.149,0-.223a.228.228,0,0,1,.046-.139.225.225,0,0,1,.151-.093.2.2,0,0,1,.146.031.178.178,0,0,1,.072.132c.008.076.01.152.011.229a2.345,2.345,0,0,1-.222,1.036A1.278,1.278,0,0,1,602.915-31.173Z" transform="translate(-568.261 38.708)" fill="#fff"/>
          <path id="Path_3887" data-name="Path 3887" d="M614.283-34.812a.289.289,0,0,1-.06,0,1,1,0,0,1-.526-.205,1.3,1.3,0,0,1-.329-.4,5.244,5.244,0,0,1-.232-.5,4.946,4.946,0,0,0-.209-.465,1.407,1.407,0,0,0-.287-.385c0,.1,0,.2.005.291s.005.185.005.274,0,.181-.007.27a1.04,1.04,0,0,1-.239.769.522.522,0,0,1-.261.114.493.493,0,0,1-.243-.027.334.334,0,0,1-.18-.162.6.6,0,0,1-.063-.292c0-.025,0-.05.007-.074q.063-1.015.063-2.049a25.485,25.485,0,0,0-.176-3.062v-.028a.367.367,0,0,1,.109-.263.51.51,0,0,1,.3-.148.389.389,0,0,1,.311.1.678.678,0,0,1,.188.44,23.527,23.527,0,0,1,.183,2.956,3.293,3.293,0,0,0,.837-.851,1.585,1.585,0,0,0,.3-.851,1.931,1.931,0,0,0-.014-.218l0-.028a.217.217,0,0,1,.035-.113.251.251,0,0,1,.183-.114.2.2,0,0,1,.123.023q.127.068.126.466a2.693,2.693,0,0,1-1.393,2.028,2.472,2.472,0,0,1,.542.646,5.8,5.8,0,0,1,.325.667,3.177,3.177,0,0,0,.266.532.5.5,0,0,0,.362.244.177.177,0,0,1,.127.07.2.2,0,0,1,.038.112.209.209,0,0,1-.095.183A.261.261,0,0,1,614.283-34.812Z" transform="translate(-575.327 42.614)" fill="#fff"/>
          <path id="Path_3888" data-name="Path 3888" d="M623.067-33.5a.943.943,0,0,1-.943-.43,2.774,2.774,0,0,1-.355-1.58,3.708,3.708,0,0,1,.183-1.144,1.962,1.962,0,0,1,.672-1.014,1.207,1.207,0,0,1,.573-.218.726.726,0,0,1,.612.183.947.947,0,0,1,.246.725,2.163,2.163,0,0,1-1.365,1.9,2.308,2.308,0,0,0,.141.7q.148.384.426.349c.115-.014.219-.112.311-.292a1.4,1.4,0,0,0,.139-.651v-.073a.256.256,0,0,1,.058-.161.22.22,0,0,1,.153-.085.189.189,0,0,1,.143.037.171.171,0,0,1,.065.137c0,.04,0,.079,0,.119a1.858,1.858,0,0,1-.222.9A1.074,1.074,0,0,1,623.067-33.5Zm-.384-2.017a1.674,1.674,0,0,0,.676-.615,1.633,1.633,0,0,0,.274-.792q0-.314-.19-.291-.254.031-.507.552A2.779,2.779,0,0,0,622.684-35.516Z" transform="translate(-582.545 40.304)" fill="#fff"/>
          <path id="Path_3889" data-name="Path 3889" d="M634.208-33.99a.173.173,0,0,1-.049,0,1.106,1.106,0,0,1-.858-.474,1.772,1.772,0,0,1-.225-.914,8.145,8.145,0,0,1,.092-1.146,7.029,7.029,0,0,0,.088-.925,1.542,1.542,0,0,0-.011-.207.15.15,0,0,0-.032-.085.059.059,0,0,0-.046-.016q-.318.036-.746,2.458-.13.773-.151.881a.365.365,0,0,1-.156.226.607.607,0,0,1-.276.1.451.451,0,0,1-.241-.036.34.34,0,0,1-.17-.163.564.564,0,0,1-.056-.259q.032-.517.032-.9a8.635,8.635,0,0,0-.215-2.189.531.531,0,0,1-.018-.131.336.336,0,0,1,.064-.2.4.4,0,0,1,.285-.163.442.442,0,0,1,.327.106.83.83,0,0,1,.25.448,5.824,5.824,0,0,1,.158.921,5.338,5.338,0,0,1,.273-.835,2.271,2.271,0,0,1,.389-.637.823.823,0,0,1,.531-.286.535.535,0,0,1,.566.353,1.605,1.605,0,0,1,.155.72,6.47,6.47,0,0,1-.067.769,9.316,9.316,0,0,0-.105,1.192,2.786,2.786,0,0,0,.042.5.688.688,0,0,0,.289.5.178.178,0,0,1,.091.161.252.252,0,0,1-.017.089A.223.223,0,0,1,634.208-33.99Z" transform="translate(-589.186 40.676)" fill="#fff"/>
          <path id="Path_3890" data-name="Path 3890" d="M650.517-39.336a1.349,1.349,0,0,1-.649-.077.9.9,0,0,1-.419-.333.893.893,0,0,1-.146-.506,1.179,1.179,0,0,1,.193-.62c.087-.127.17-.2.25-.2.141-.014.211.047.211.182a.339.339,0,0,1-.056.17.774.774,0,0,0-.127.407.421.421,0,0,0,.105.323.331.331,0,0,0,.268.081,1.237,1.237,0,0,0,.5-.18,1.893,1.893,0,0,0,.459-.371.668.668,0,0,0,.2-.413.921.921,0,0,0-.285-.671,3.219,3.219,0,0,0-.644-.459q-.218-.129-.431-.276a2.281,2.281,0,0,1-.389-.337,1.466,1.466,0,0,1-.282-.453,1.657,1.657,0,0,1-.105-.622,1.392,1.392,0,0,1,.248-.807,1.9,1.9,0,0,1,.644-.584,2.087,2.087,0,0,1,.839-.265,1.319,1.319,0,0,1,.665.093,1.214,1.214,0,0,1,.479.377,1.6,1.6,0,0,1,.274.578.208.208,0,0,1,.007.052.2.2,0,0,1-.032.107.239.239,0,0,1-.19.114.225.225,0,0,1-.113-.018.194.194,0,0,1-.1-.121q-.169-.666-.739-.615a.994.994,0,0,0-.285.08,1.513,1.513,0,0,0-.32.185,1.091,1.091,0,0,0-.258.274.627.627,0,0,0-.1.351.934.934,0,0,0,.14.518,1.6,1.6,0,0,0,.364.39q.223.173.48.335.211.138.415.286a2.411,2.411,0,0,1,.369.331,1.468,1.468,0,0,1,.264.416,1.373,1.373,0,0,1,.1.54,1.5,1.5,0,0,1-.248.844,1.941,1.941,0,0,1-.658.614A2.16,2.16,0,0,1,650.517-39.336Z" transform="translate(-601.902 45.577)" fill="#fff"/>
          <path id="Path_3891" data-name="Path 3891" d="M661.816-38.294a.92.92,0,0,1-.584-.169,1.532,1.532,0,0,1-.532-.656,7.145,7.145,0,0,1-.358-2.717c-.113.023-.221.048-.324.072l-.067.006c-.108.009-.162-.048-.162-.171a.185.185,0,0,1,.025-.09.205.205,0,0,1,.12-.094,3.985,3.985,0,0,1,.415-.1q.067-1.609.3-1.8a.433.433,0,0,1,.253-.107.486.486,0,0,1,.269.055.388.388,0,0,1,.183.19.639.639,0,0,1,.055.26.844.844,0,0,1-.014.144,9.907,9.907,0,0,0-.112,1.154c.127-.01.3-.014.507-.014q.225,0,.225.165a.186.186,0,0,1-.035.1.214.214,0,0,1-.18.09l-.528.033c0,.142,0,.364,0,.664a7.906,7.906,0,0,0,.183,1.755q.18.771.447.884a.158.158,0,0,1,.116.149C662.013-38.37,661.947-38.3,661.816-38.294Z" transform="translate(-609.408 44.71)" fill="#fff"/>
          <path id="Path_3892" data-name="Path 3892" d="M668.738-38.214a.42.42,0,0,1-.336-.138.713.713,0,0,1-.149-.514c0-1.029-.018-1.713-.051-2.051a8.118,8.118,0,0,0-.153-.96.574.574,0,0,1-.01-.108.351.351,0,0,1,.077-.226.391.391,0,0,1,.288-.146.44.44,0,0,1,.32.121.817.817,0,0,1,.225.46,4.909,4.909,0,0,1,.085.759q.334-1.413.82-1.575a.818.818,0,0,1,.218-.045.577.577,0,0,1,.232.032.19.19,0,0,1,.141.195.23.23,0,0,1-.065.161.235.235,0,0,1-.164.076.547.547,0,0,1-.1,0,.625.625,0,0,0-.121,0q-.321.019-.693,1.958a12.46,12.46,0,0,0-.155,1.627Q669.125-38.243,668.738-38.214Z" transform="translate(-615.236 43.654)" fill="#fff"/>
          <path id="Path_3893" data-name="Path 3893" d="M677.095-40.833a.54.54,0,0,1-.315-.092.638.638,0,0,1-.248-.339,5.122,5.122,0,0,1-.257-1.774c0-.433.019-.853.06-1.261a.294.294,0,0,1,.134-.222.528.528,0,0,1,.274-.09.549.549,0,0,1,.25.045.383.383,0,0,1,.183.158.5.5,0,0,1,.063.261q-.049.691-.049,1.159,0,.178,0,.356a4.647,4.647,0,0,0,.243,1.434.355.355,0,0,1,.014.094.218.218,0,0,1-.074.164A.425.425,0,0,1,677.095-40.833Zm-.208-4.146a.348.348,0,0,1-.3-.148.6.6,0,0,1-.125-.391.683.683,0,0,1,.125-.407.391.391,0,0,1,.3-.182.346.346,0,0,1,.3.15.619.619,0,0,1,.125.394.664.664,0,0,1-.125.4A.392.392,0,0,1,676.887-44.98Z" transform="translate(-621.056 46.109)" fill="#fff"/>
          <path id="Path_3894" data-name="Path 3894" d="M682.719-36.61a.481.481,0,0,1-.241-.055.463.463,0,0,1-.2-.2.776.776,0,0,1-.078-.376q0-2.424-.243-4.884l0-.028a.384.384,0,0,1,.118-.279.411.411,0,0,1,.283-.126.448.448,0,0,1,.222.05.468.468,0,0,1,.187.188.92.92,0,0,1,.1.356q.081.748.13,1.515.031-.166.086-.412a5.083,5.083,0,0,1,.144-.517,3.324,3.324,0,0,1,.216-.509,1.437,1.437,0,0,1,.3-.394.6.6,0,0,1,.394-.162.619.619,0,0,1,.5.22,1.534,1.534,0,0,1,.315.607,2.927,2.927,0,0,1,.109.815,3.343,3.343,0,0,1-.213,1.208,1.539,1.539,0,0,1-.538.767,1.226,1.226,0,0,1-.625.222,1.581,1.581,0,0,1-.485-.067q-.077.855-.088,1.7a.322.322,0,0,1-.118.259A.449.449,0,0,1,682.719-36.61Zm.559-2.53a.619.619,0,0,0,.492-.261,1.738,1.738,0,0,0,.3-.682,3.753,3.753,0,0,0,.091-.818,3.357,3.357,0,0,0-.055-.654c-.036-.182-.087-.271-.153-.269s-.142.081-.208.235a3.815,3.815,0,0,0-.183.579q-.085.347-.15.723t-.107.687c-.028.207-.047.361-.056.462Z" transform="translate(-625.072 43.601)" fill="#fff"/>
          <path id="Path_3895" data-name="Path 3895" d="M694.945-38.887a.874.874,0,0,1-.619-.224.727.727,0,0,1-.253-.563.914.914,0,0,1,.134-.467q.081-.144.183-.146a.15.15,0,0,1,.142.064.234.234,0,0,1,.041.115.238.238,0,0,1-.032.109.628.628,0,0,0-.081.305.391.391,0,0,0,.07.259.22.22,0,0,0,.176.08.556.556,0,0,0,.406-.2.616.616,0,0,0,.181-.431.852.852,0,0,0-.171-.542,2.558,2.558,0,0,0-.406-.406,3.84,3.84,0,0,1-.355-.334,1.579,1.579,0,0,1-.287-.435,1.528,1.528,0,0,1-.114-.627,1.05,1.05,0,0,1,.188-.618,1.375,1.375,0,0,1,.473-.425,1.21,1.21,0,0,1,.573-.158.974.974,0,0,1,.66.244,1,1,0,0,1,.343.663v.035a.141.141,0,0,1-.061.119.22.22,0,0,1-.132.046.143.143,0,0,1-.155-.122q-.116-.527-.489-.525a.574.574,0,0,0-.245.07.667.667,0,0,0-.241.207.55.55,0,0,0-.1.337.82.82,0,0,0,.09.392,1.188,1.188,0,0,0,.236.3,4.006,4.006,0,0,0,.315.264,4,4,0,0,1,.382.33,1.567,1.567,0,0,1,.308.433,1.388,1.388,0,0,1,.123.615,1.115,1.115,0,0,1-.188.643,1.322,1.322,0,0,1-.482.432A1.321,1.321,0,0,1,694.945-38.887Z" transform="translate(-633.551 44.286)" fill="#fff"/>
        </g>
      </g>
      <g id="Group_4285" data-name="Group 4285" transform="translate(53.467 19.155)">
        <path id="Path_3896" data-name="Path 3896" d="M657.123-138.467a.811.811,0,0,0-.209.028c-.324.088-.408.186-.87.726a16.418,16.418,0,0,1-5.184,4.058,7.733,7.733,0,0,1,.3-2.115,1.9,1.9,0,0,0,.48-.068c1.3-.35,4-3.866,5.462-6.273.982-1.652,1.286-2.587,1.081-3.336-.265-.97-1.681-1.621-2.836-1.621a2.585,2.585,0,0,0-.671.084,8.9,8.9,0,0,0-3.6,2.65c-3.011,3.338-4.932,7.985-4.283,10.359a4.8,4.8,0,0,0,4.3,3.426h0a3.173,3.173,0,0,0,.825-.107c1.619-.437,3.98-2.774,5.618-5.56a2.065,2.065,0,0,0,.4-1.585A.86.86,0,0,0,657.123-138.467Zm-2.927-5.255a7.39,7.39,0,0,1,1.383-1.227c.1-.026.137,0,.154.061.174.636-.517,2.256-1.645,3.79a8.374,8.374,0,0,1-2.834,2.71A17.959,17.959,0,0,1,654.2-143.722Zm-5.058,3.93a5.749,5.749,0,0,0-.333.585,9.82,9.82,0,0,0-.714,1.891c-.106.353-.174.715-.245,1.053s-.107.661-.144.938-.066.509-.073.673-.028.258-.028.258-.017-.094-.037-.257-.046-.4-.055-.684a7.268,7.268,0,0,1,.257-2.071,6.531,6.531,0,0,1,.385-1.053,5,5,0,0,1,.489-.849,3.206,3.206,0,0,1,.646-.7Z" transform="translate(-646.671 147.069)" fill="#fff"/>
      </g>
      <g id="Group_4286" data-name="Group 4286" transform="translate(64.286 19.004)">
        <path id="Path_3897" data-name="Path 3897" d="M696.6-145.656a2.606,2.606,0,0,0-2.568-1.926,2.684,2.684,0,0,0-.557.058c-1.432.3-3.145,1.77-4.486,3.778a3.249,3.249,0,0,0-.323-.391,2.764,2.764,0,0,0-1.877-.913,1.418,1.418,0,0,0-.294.03.862.862,0,0,0-.677,1.081,1.648,1.648,0,0,0,.129.4,1.839,1.839,0,0,1,.09.3c.188.871-.214,3.479-1.97,7.971-.44,1.184-.6,1.677-.493,2.158a3.592,3.592,0,0,0,2.565,2.337,1.021,1.021,0,0,0,.211-.022,1.454,1.454,0,0,0,1-1l.011-.03.007-.028c.031-.115.291-.889.774-2.054l1.734-4.526a22.362,22.362,0,0,1,2.781-5.072,4.672,4.672,0,0,1,1.919-1.427,1.172,1.172,0,0,1,.245-.028.533.533,0,0,1,.323.087l.047.035.109.054a1.05,1.05,0,0,0,.5.151h0a.824.824,0,0,0,.168-.018.8.8,0,0,0,.544-.395A.85.85,0,0,0,696.6-145.656Zm-10.013,5.389c-.055.358-.113.779-.212,1.222s-.223.912-.364,1.375-.308.919-.479,1.339-.348.8-.5,1.135c-.314.655-.558,1.072-.558,1.072l.109-.314.3-.821c.126-.338.261-.737.409-1.161s.3-.879.44-1.336.273-.917.392-1.35.222-.84.3-1.191l.269-1.174S686.678-140.986,686.584-140.267Z" transform="translate(-683.542 147.582)" fill="#fff"/>
      </g>
      <g id="Group_4287" data-name="Group 4287" transform="translate(34.828 19.92)">
        <path id="Path_3898" data-name="Path 3898" d="M603.889-142.161c-.243-1.24-2.095-2.3-3.44-2.3a2.323,2.323,0,0,0-.443.041c-1.586.307-3.175,1.414-5.255,3.712a3.978,3.978,0,0,0-.079-.708,2.728,2.728,0,0,0-2.468-2.331,1.976,1.976,0,0,0-.374.036.929.929,0,0,0-.689,1.1l.077.394.038.026c.114.7-.223,2.39-1,5.019-.606,2.059-2.07,6.085-4.748,13.057l-1.5,3.919c-.7,1.879-.985,2.886-.789,3.888.219,1.116,1.541,2.669,2.543,2.669h0a1.079,1.079,0,0,0,.2-.019c.7-.135.834-.713,1.061-1.679a19.588,19.588,0,0,1,.763-2.667l3.716-10.924a12.8,12.8,0,0,0,5.735-2.966C600.77-134.777,604.372-139.7,603.889-142.161ZM588.974-129.83c-.38,1.573-.779,2.21-4.083,10.721.006.006.008.009,0,0-.071-.061-.017-.02,0,0l4.276-11.991a1.331,1.331,0,0,0,0,.346A5.319,5.319,0,0,1,588.974-129.83ZM600.2-141.715a17.73,17.73,0,0,1-3.251,6c-2.11,2.858-4.313,4.9-5.629,5.251.409-1.187.753-2.193.97-2.806a16.527,16.527,0,0,1,2.731-4.858c1.65-2.1,3.8-3.89,5.005-4.123.13-.025.2-.006.221.092C600.252-142.129,600.219-141.955,600.2-141.715Z" transform="translate(-583.157 144.463)" fill="#fff"/>
      </g>
      <g id="Group_4288" data-name="Group 4288" transform="translate(27.766 19.968)">
        <path id="Path_3899" data-name="Path 3899" d="M569.727-142.844c-.234-.17-.475-.324-.707-.474s-.449-.288-.657-.439a2.559,2.559,0,0,0-1.507-.541,2.676,2.676,0,0,0-1.781.768,6.357,6.357,0,0,0-1.676,7.941c.327.71.6,1.435.894,2.2l.168.44-.411.148a7.074,7.074,0,0,0-4.845,5.581,3.282,3.282,0,0,0,1.149,3.578,4.4,4.4,0,0,0,2.645.981A4.046,4.046,0,0,0,564.59-123a6.333,6.333,0,0,0,3.783-7.624c-.16-.752-.332-1.41.229-1.59.389-.124,1.379-.411,1.529-1.077a.236.236,0,0,0-.043-.195l-.027-.036a.684.684,0,0,0-.622-.266l-1.8.2a9.51,9.51,0,0,1,.146-4.378,1.677,1.677,0,0,1,.832-1.119c.216.092.248.116.154.712a4.747,4.747,0,0,0-.063.552,2.4,2.4,0,0,0,.215.966c.038.1.074.193.1.276h0a.71.71,0,0,0,1.068.373l.317-.206c.067-.05.155-.1.249-.161.272-.165.251-.2.439-.566C572.326-139.509,571.905-141.269,569.727-142.844Zm-6.154,17.488c-.652.615-1.107.462-1.257-.411a1.982,1.982,0,0,1,.064-.958,7.361,7.361,0,0,1,3.31-4.043A6.746,6.746,0,0,1,563.574-125.356Zm3.736-18.075a1.631,1.631,0,0,0-.271-.007,2.034,2.034,0,0,0-.9.271,2.732,2.732,0,0,0-.515.366,4.522,4.522,0,0,0-.485.513,5.58,5.58,0,0,0-.783,1.322,6.846,6.846,0,0,0-.465,1.471c-.045.243-.086.478-.109.7a6.139,6.139,0,0,0-.038.639c0,.2,0,.381.013.542s.026.3.039.418l.054.364s-.044-.127-.1-.355a5.444,5.444,0,0,1-.146-.966,6.235,6.235,0,0,1,.074-1.385,7.027,7.027,0,0,1,.449-1.531,5.8,5.8,0,0,1,.846-1.361,3.337,3.337,0,0,1,1.1-.866,1.982,1.982,0,0,1,.538-.171,1.959,1.959,0,0,1,.432-.023,1.276,1.276,0,0,1,.273.042l.094.022Z" transform="translate(-559.089 144.298)" fill="#fff"/>
      </g>
      <g id="Group_4289" data-name="Group 4289" transform="translate(21.89 27.231)">
        <path id="Path_3900" data-name="Path 3900" d="M545.851-116.659c-.313-1.593-1.472-2.889-2.584-2.889a1.408,1.408,0,0,0-.268.026.8.8,0,0,0-.656.925,1.015,1.015,0,0,0,.137.355l0,.02c.088.45-.271,1.558-1.748,5.39-1.551,4.006-1.86,5.34-1.574,6.8a3.1,3.1,0,0,0,2.591,2.549,1.561,1.561,0,0,0,.3-.028c.226-.044.746-.237.688-1.083l-.008-.114a61.555,61.555,0,0,1,2.258-6.908C545.937-114.2,546.152-115.124,545.851-116.659Zm-2.756,1.416c-.141,1.156-.548,1.64-3.1,7.975.01,0,.014.006,0,0-.118-.039-.029-.013,0,0l3.047-8.9a.564.564,0,0,0,.087.249C543.2-115.824,543.114-115.4,543.1-115.243Z" transform="translate(-539.067 119.548)" fill="#fff"/>
      </g>
      <g id="Group_4290" data-name="Group 4290" transform="translate(10.457 28.018)">
        <path id="Path_3901" data-name="Path 3901" d="M513.3-114.9a2.585,2.585,0,0,0-2.567-1.963,2.666,2.666,0,0,0-.505.048c-1.427.276-3.153,1.7-4.523,3.663a3.26,3.26,0,0,0-.31-.389,2.763,2.763,0,0,0-1.878-.943,1.4,1.4,0,0,0-.264.024.865.865,0,0,0-.614.433.923.923,0,0,0-.082.634,1.638,1.638,0,0,0,.122.4,1.812,1.812,0,0,1,.083.3c.17.868-.278,3.447-2.1,7.872-.459,1.168-.624,1.655-.53,2.136a3.531,3.531,0,0,0,2.527,2.371,1.008,1.008,0,0,0,.192-.018,1.448,1.448,0,0,0,1.017-.978l.011-.03.008-.028c.033-.114.306-.878.807-2.024l1.806-4.46a22.168,22.168,0,0,1,2.854-4.981,4.639,4.639,0,0,1,1.929-1.38,1.2,1.2,0,0,1,.225-.023.539.539,0,0,1,.334.092l.046.035.108.056a1.039,1.039,0,0,0,.512.159.816.816,0,0,0,.154-.015A.815.815,0,0,0,513.3-114.9Zm-11.665,11.838,2.228-8.075C504.135-107.451,501.636-103.066,501.636-103.066Z" transform="translate(-500.105 116.867)" fill="#fff"/>
      </g>
      <g id="Group_4292" data-name="Group 4292" transform="translate(0 5.286)">
        <path id="Path_3902" data-name="Path 3902" d="M636.858-84.006c-1.412-2.484-4.863-3.772-10.257-3.83l-.3,0c-5.565,0-14.767,1.984-19,3.355l-.188.061-2.556,7.515.717-.2a64.822,64.822,0,0,1,16.34-2.466c6.3,0,10.634,1.443,12.887,4.29a.737.737,0,0,0,.6.306.743.743,0,0,0,.631-.362C636.655-76.908,638.628-80.894,636.858-84.006Zm-6.932,4.624c-.1-.045-.211-.1-.334-.149l-.4-.153-.456-.175-.516-.166c-.18-.055-.364-.121-.561-.172l-.608-.156a6.459,6.459,0,0,0-.646-.142c-.223-.039-.446-.1-.677-.133-.465-.067-.943-.14-1.434-.181-.488-.061-.99-.069-1.489-.1-.5,0-1-.023-1.5,0-.494.009-.979.041-1.45.07-.469.049-.925.074-1.355.13s-.839.1-1.213.156-.72.1-1.025.156-.573.089-.792.132l-.692.117.66-.238c.21-.076.468-.159.767-.245s.637-.19,1.011-.277.779-.185,1.212-.267.894-.153,1.371-.218c.479-.046.975-.115,1.482-.127.506-.034,1.023-.023,1.539-.025.516.033,1.032.051,1.537.121.507.043,1,.156,1.474.242.237.051.467.113.693.173s.445.119.654.195l.612.208c.2.072.378.16.556.235s.349.146.506.224l.439.237.384.209c.116.069.217.141.311.2l.58.394Z" transform="translate(-563.447 119.088)" fill="#be1f25"/>
        <g id="Group_4291" data-name="Group 4291">
          <path id="Path_3903" data-name="Path 3903" d="M498.734-157.319c-.785.293-1.2.434-1.6.57s-.777.262-1.465.523l-.015.006c-.083.035-8.4,3.532-15.688,3.532a18.09,18.09,0,0,1-3.482-.312c-.193-.038-.35-.072-.494-.106a7.937,7.937,0,0,1-4.4-2.745c-.039-.064-.087-.144-.128-.225l-.021-.04-.029-.034a9.286,9.286,0,0,1-1.588-4.078v0a21,21,0,0,1,.208-5.725,33.675,33.675,0,0,1,3.713-10.3,55.083,55.083,0,0,1,8.01-10.243c.394-.349.747-.648,1.08-.914a17.349,17.349,0,0,1,2.636-1.763,7.032,7.032,0,0,1,2.415-.825.936.936,0,0,1,.112-.007.476.476,0,0,1,.329.111,2.019,2.019,0,0,1,.427.536,6.136,6.136,0,0,1,.377.814.73.73,0,0,0,.031.07,3.992,3.992,0,0,0,.482.882,2.635,2.635,0,0,0,.814.724,1.881,1.881,0,0,0,.951.23,3.09,3.09,0,0,0,.377-.024,5.232,5.232,0,0,0,.862-.174,1.363,1.363,0,0,0,.315-.141.666.666,0,0,0,.209-.206h0a.68.68,0,0,0,.091-.208,5.949,5.949,0,0,0-.9-5.254,4.8,4.8,0,0,0-3.859-1.68,11.586,11.586,0,0,0-2.506.321c-3.856.845-11.291,3.993-17.762,15.58-2.8,5.034-4.049,9.956-3.706,14.63a8.837,8.837,0,0,0,.11,1.033c.041.308.148,1.076.252,1.554a19.382,19.382,0,0,0,.824,2.856,19.052,19.052,0,0,0,1.173,2.6,12.149,12.149,0,0,0,1.741,2.516,15.306,15.306,0,0,0,9.117,4.766,23.586,23.586,0,0,0,4.112.335A51.24,51.24,0,0,0,495.9-150.52l.019-.006c.117-.042.359-.1.554-.149.542-.133.725-.178.773-.454l.017-.106a16.759,16.759,0,0,1,.729-2.262l1.552-4.127ZM469.1-175.243c-.309.673-.553,1.385-.823,2.086-.232.714-.494,1.42-.678,2.137-.212.709-.376,1.418-.538,2.1-.082.343-.129.686-.2,1.018s-.134.658-.171.979c-.087.64-.183,1.245-.22,1.809-.026.281-.05.551-.074.808s-.021.5-.031.731c-.021.46-.039.862-.022,1.192.013.661.012,1.042.012,1.042s-.051-.375-.126-1.036c-.046-.33-.063-.734-.083-1.2q-.016-.349-.033-.74c.006-.26.013-.534.02-.82s0-.585.035-.892l.086-.952c.022-.328.079-.661.128-1s.1-.691.169-1.042c.149-.7.283-1.431.5-2.152.182-.731.44-1.452.671-2.181.281-.711.537-1.433.857-2.115.29-.7.643-1.349.968-1.987.163-.319.347-.62.519-.919s.338-.592.524-.865c.357-.552.693-1.074,1.043-1.529l.488-.661.475-.571c.3-.358.556-.67.789-.908.456-.486.722-.758.722-.758s-.227.305-.635.831c-.212.257-.441.59-.7.967l-.418.6-.439.685c-.317.47-.615,1.006-.946,1.563-.17.276-.318.575-.477.874s-.331.6-.482.921l-.463.969C469.377-175.926,469.25-175.58,469.1-175.243Z" transform="translate(-464.471 194.331)" fill="#be1f25"/>
        </g>
      </g>
    </g>
  </g>
</svg>
